<?xml version="1.0" encoding="UTF-8"?>
<svg version="1.1" xmlns="http://www.w3.org/2000/svg" width="66" height="81">
<path d="M0 0 C21.78 0 43.56 0 66 0 C66 26.73 66 53.46 66 81 C44.22 81 22.44 81 0 81 C0 54.27 0 27.54 0 0 Z " fill="#0B0C0D" transform="translate(0,0)"/>
<path d="M0 0 C2.10339561 0.85606363 4.20757664 1.71019975 6.3125 2.5625 C12.85617196 5.22714613 17.26324405 7.19729036 20.28515625 13.7265625 C21.4660901 17.48231934 21.32410224 21.11077314 21 25 C20.34 25 19.68 25 19 25 C19 25.66 19 26.32 19 27 C17.66666667 28.33333333 16.33333333 29.66666667 15 31 C15 31.66 15 32.32 15 33 C13.68 33 12.36 33 11 33 C11 32.34 11 31.68 11 31 C7.43956007 31.6916516 7.43956007 31.6916516 3.9375 32.625 C1.66384163 33.06506291 0.18417292 32.70205558 -2 32 C-2 31.34 -2 30.68 -2 30 C0.64 29.34 3.28 28.68 6 28 C6 27.01 6 26.02 6 25 C5.34 25.99 4.68 26.98 4 28 C0.375 29.1875 0.375 29.1875 -3 30 C-3 30.66 -3 31.32 -3 32 C1.46334184 33.72293135 5.10201231 34.22240791 9.875 34.125 C11.02742188 34.10695312 12.17984375 34.08890625 13.3671875 34.0703125 C14.23601563 34.04710937 15.10484375 34.02390625 16 34 C17.125 38.75 17.125 38.75 16 41 C17.32 39.68 18.64 38.36 20 37 C20.18451025 52.74487472 20.18451025 52.74487472 19 60 C18.01 59.505 18.01 59.505 17 59 C17 58.01 17 57.02 17 56 C16.1646875 55.8453125 16.1646875 55.8453125 15.3125 55.6875 C12.55980585 54.86913147 10.4566847 53.47401082 8 52 C5.80869466 51.30420546 5.80869466 51.30420546 4 51 C4 50.34 4 49.68 4 49 C3.18144531 49.16113281 2.36289062 49.32226562 1.51953125 49.48828125 C-7.96246931 50.8669073 -18.85015202 51.04994933 -28 48 C-30.7115029 43.93274566 -30.57867488 40.8452389 -31 36 C-31 39.3 -31 42.6 -31 46 C-31.99 45.34 -32.98 44.68 -34 44 C-34.09435956 47.69350295 -33.76405566 51.11229854 -33.125 54.75 C-32.96257813 55.71421875 -32.80015625 56.6784375 -32.6328125 57.671875 C-32.31957031 58.82429688 -32.31957031 58.82429688 -32 60 C-31.34 60.33 -30.68 60.66 -30 61 C-30 61.66 -30 62.32 -30 63 C-31.485 63.495 -31.485 63.495 -33 64 C-34.972304 60.31264904 -36.31314096 57.12115424 -37 53 C-37.33 52.34 -37.66 51.68 -38 51 C-38.08400529 49.40552536 -38.10727467 47.80759455 -38.09765625 46.2109375 C-38.09443359 45.26992188 -38.09121094 44.32890625 -38.08789062 43.359375 C-38.07951172 42.37453125 -38.07113281 41.3896875 -38.0625 40.375 C-38.05798828 39.38242187 -38.05347656 38.38984375 -38.04882812 37.3671875 C-38.03702145 34.9113984 -38.020554 32.45572896 -38 30 C-37.34 30 -36.68 30 -36 30 C-36.15597656 29.39671875 -36.31195313 28.7934375 -36.47265625 28.171875 C-36.66730469 27.37265625 -36.86195312 26.5734375 -37.0625 25.75 C-37.25972656 24.96109375 -37.45695312 24.1721875 -37.66015625 23.359375 C-38.01497267 20.89605178 -37.76877544 19.34395868 -37 17 C-36.01 17 -35.02 17 -34 17 C-34.33 18.32 -34.66 19.64 -35 21 C-33.35 20.67 -31.7 20.34 -30 20 C-29.67 20.99 -29.34 21.98 -29 23 C-29.28875 22.195625 -29.5775 21.39125 -29.875 20.5625 C-30.73262568 17.8673532 -30.73262568 17.8673532 -33 17 C-32.875 14.6875 -32.875 14.6875 -32 12 C-31.05125 11.54625 -30.1025 11.0925 -29.125 10.625 C-24.96593816 8.46228784 -24.43233752 6.37239874 -23 2 C-22.30859478 -0.77888613 -22.30859478 -0.77888613 -22 -3 C-13.78350439 -5.73883187 -7.49970155 -3.33559179 0 0 Z " fill="#6E788D" transform="translate(41,17)"/>
<path d="M0 0 C1.32 0.33 2.64 0.66 4 1 C3.67 9.25 3.34 17.5 3 26 C3.99 25.67 4.98 25.34 6 25 C6 34.9 6 44.8 6 55 C-12.81 55 -31.62 55 -51 55 C-50.01 54.505 -50.01 54.505 -49 54 C-49 53.34 -49 52.68 -49 52 C-49.99 51.67 -50.98 51.34 -52 51 C-54.62849569 40.76764179 -54.18464072 30.47323215 -54 20 C-52 22 -52 22 -51.8046875 25.0390625 C-51.83949219 26.81410156 -51.83949219 26.81410156 -51.875 28.625 C-51.89304687 29.81351563 -51.91109375 31.00203125 -51.9296875 32.2265625 C-51.96449219 33.59941406 -51.96449219 33.59941406 -52 35 C-51.67 35 -51.34 35 -51 35 C-51 32.36 -51 29.72 -51 27 C-50.34 26.67 -49.68 26.34 -49 26 C-48.93941406 26.69867188 -48.87882812 27.39734375 -48.81640625 28.1171875 C-48.73261719 29.02726562 -48.64882813 29.93734375 -48.5625 30.875 C-48.48128906 31.77992187 -48.40007813 32.68484375 -48.31640625 33.6171875 C-48.13010715 36.01110861 -48.13010715 36.01110861 -47 38 C-41.04282744 39.91480547 -35.39150959 40.1809056 -29.1875 40.1875 C-28.44628906 40.18830566 -27.70507812 40.18911133 -26.94140625 40.18994141 C-23.46079861 40.15434428 -20.35628322 39.88579872 -17 39 C-16.01 39.495 -16.01 39.495 -15 40 C-15 40.66 -15 41.32 -15 42 C-13.02 42 -11.04 42 -9 42 C-9 42.66 -9 43.32 -9 44 C-6.66785852 45.20628008 -4.50357861 46.1654738 -2 47 C-1.67 47.99 -1.34 48.98 -1 50 C0.32719886 43.03220597 0.08825381 36.07011089 0 29 C-1.65 30.65 -3.3 32.3 -5 34 C-4.67 33.071875 -4.34 32.14375 -4 31.1875 C-2.85032996 28.07970709 -2.85032996 28.07970709 -3 25 C-3.99 25.495 -3.99 25.495 -5 26 C-11.74803677 26.58192025 -17.00617046 26.19670909 -23 23 C-22.67 22.01 -22.34 21.02 -22 20 C-20.88625 19.690625 -19.7725 19.38125 -18.625 19.0625 C-14.83732365 17.952319 -13.89054174 17.33625014 -12 14 C-12.33 15.65 -12.66 17.3 -13 19 C-11.35 19 -9.7 19 -8 19 C-8 19.33 -8 19.66 -8 20 C-14.435 20.495 -14.435 20.495 -21 21 C-21 21.66 -21 22.32 -21 23 C-18.69 23 -16.38 23 -14 23 C-14 22.67 -14 22.34 -14 22 C-12.02 22 -10.04 22 -8 22 C-8 22.66 -8 23.32 -8 24 C-6.68 24 -5.36 24 -4 24 C-4 23.34 -4 22.68 -4 22 C-4.66 21.67 -5.32 21.34 -6 21 C-2.25 18 -2.25 18 0 18 C0 17.34 0 16.68 0 16 C0.66 16 1.32 16 2 16 C1.42978066 10.6496441 0.79265639 5.32212148 0 0 Z " fill="#15161B" transform="translate(60,26)"/>
<path d="M0 0 C0.99 0 1.98 0 3 0 C2.67 1.32 2.34 2.64 2 4 C3.65 3.67 5.3 3.34 7 3 C6.67 5.31 6.34 7.62 6 10 C6.94101563 9.96519531 7.88203125 9.93039063 8.8515625 9.89453125 C10.71941406 9.85392578 10.71941406 9.85392578 12.625 9.8125 C13.85476562 9.77769531 15.08453125 9.74289063 16.3515625 9.70703125 C20.26407664 10.0212053 22.64070218 11.03093467 26 13 C25.67 13.99 25.34 14.98 25 16 C23.02 16 21.04 16 19 16 C19 16.66 19 17.32 19 18 C20.15757813 18.12117188 21.31515625 18.24234375 22.5078125 18.3671875 C24.04691292 18.53611316 25.58597337 18.70540332 27.125 18.875 C28.26582031 18.99294922 28.26582031 18.99294922 29.4296875 19.11328125 C33.85959721 19.60973665 37.80211971 20.40400079 42 22 C42.625 24.3125 42.625 24.3125 43 27 C42.34 27.99 41.68 28.98 41 30 C47.53674199 28.24623995 52.35043751 24.81812669 57 20 C57.18451025 35.74487472 57.18451025 35.74487472 56 43 C55.01 42.505 55.01 42.505 54 42 C54 41.01 54 40.02 54 39 C53.1646875 38.8453125 53.1646875 38.8453125 52.3125 38.6875 C49.55980585 37.86913147 47.4566847 36.47401082 45 35 C42.80869466 34.30420546 42.80869466 34.30420546 41 34 C41 33.34 41 32.68 41 32 C40.18144531 32.16113281 39.36289062 32.32226562 38.51953125 32.48828125 C29.03753069 33.8669073 18.14984798 34.04994933 9 31 C6.2884971 26.93274566 6.42132512 23.8452389 6 19 C6 22.3 6 25.6 6 29 C5.01 28.34 4.02 27.68 3 27 C2.90564044 30.69350295 3.23594434 34.11229854 3.875 37.75 C4.03742187 38.71421875 4.19984375 39.6784375 4.3671875 40.671875 C4.68042969 41.82429688 4.68042969 41.82429688 5 43 C5.66 43.33 6.32 43.66 7 44 C7 44.66 7 45.32 7 46 C5.515 46.495 5.515 46.495 4 47 C2.027696 43.31264904 0.68685904 40.12115424 0 36 C-0.33 35.34 -0.66 34.68 -1 34 C-1.08400529 32.40552536 -1.10727467 30.80759455 -1.09765625 29.2109375 C-1.09443359 28.26992188 -1.09121094 27.32890625 -1.08789062 26.359375 C-1.07951172 25.37453125 -1.07113281 24.3896875 -1.0625 23.375 C-1.05798828 22.38242187 -1.05347656 21.38984375 -1.04882812 20.3671875 C-1.03702145 17.9113984 -1.020554 15.45572896 -1 13 C-0.34 13 0.32 13 1 13 C0.76603516 12.09507813 0.76603516 12.09507813 0.52734375 11.171875 C0.33269531 10.37265625 0.13804687 9.5734375 -0.0625 8.75 C-0.25972656 7.96109375 -0.45695313 7.1721875 -0.66015625 6.359375 C-1.01497267 3.89605178 -0.76877544 2.34395868 0 0 Z " fill="#D3766F" transform="translate(4,34)"/>
<path d="M0 0 C20.46 0 40.92 0 62 0 C62 12.375 62 12.375 61 17.1875 C60.7215625 18.57001953 60.7215625 18.57001953 60.4375 19.98046875 C60.293125 20.64691406 60.14875 21.31335938 60 22 C54.40395869 21.38816313 49.71243993 19.40291799 44.5859375 17.21875 C43.69387604 16.84520386 42.80181458 16.47165771 41.88272095 16.08679199 C39.04423811 14.89721893 36.20944769 13.69915238 33.375 12.5 C30.53291367 11.30209187 27.69007379 10.10604609 24.84585571 8.91320801 C23.07933687 8.17189724 21.31412369 7.42746558 19.55038452 6.67956543 C18.74920197 6.34251587 17.94801941 6.00546631 17.12255859 5.65820312 C16.42117767 5.36143677 15.71979675 5.06467041 14.99716187 4.75891113 C13.01686606 4.00640901 11.06396082 3.46952732 9 3 C8.27683594 3.97453125 8.27683594 3.97453125 7.5390625 4.96875 C6.90742188 5.8040625 6.27578125 6.639375 5.625 7.5 C4.99851562 8.3353125 4.37203125 9.170625 3.7265625 10.03125 C3.15679687 10.6809375 2.58703125 11.330625 2 12 C1.34 12 0.68 12 0 12 C0 8.04 0 4.08 0 0 Z " fill="#80A0A7" transform="translate(3,0)"/>
<path d="M0 0 C3.97167039 2.95928382 5.8209121 5.62921294 7.1875 10.375 C7.47474773 13.41229153 7.44065568 16.33713182 7.1875 19.375 C6.5275 19.375 5.8675 19.375 5.1875 19.375 C5.1875 20.035 5.1875 20.695 5.1875 21.375 C3.85416667 22.70833333 2.52083333 24.04166667 1.1875 25.375 C1.1875 26.035 1.1875 26.695 1.1875 27.375 C-0.1325 27.375 -1.4525 27.375 -2.8125 27.375 C-2.8125 26.715 -2.8125 26.055 -2.8125 25.375 C-6.37293993 26.0666516 -6.37293993 26.0666516 -9.875 27 C-12.14865837 27.44006291 -13.62832708 27.07705558 -15.8125 26.375 C-15.8125 25.715 -15.8125 25.055 -15.8125 24.375 C-13.1725 23.715 -10.5325 23.055 -7.8125 22.375 C-7.8125 21.385 -7.8125 20.395 -7.8125 19.375 C-8.1425 19.705 -8.4725 20.035 -8.8125 20.375 C-10.33178038 20.44679964 -11.85417482 20.45892007 -13.375 20.4375 C-14.20128906 20.42847656 -15.02757812 20.41945313 -15.87890625 20.41015625 C-16.83603516 20.39275391 -16.83603516 20.39275391 -17.8125 20.375 C-17.8125 18.395 -17.8125 16.415 -17.8125 14.375 C-18.4725 14.375 -19.1325 14.375 -19.8125 14.375 C-19.8125 9.425 -19.8125 4.475 -19.8125 -0.625 C-12.62967196 -4.59847934 -7.26055066 -3.46702954 0 0 Z " fill="#D0D7D8" transform="translate(54.8125,22.625)"/>
<path d="M0 0 C2 2 2 2 2.1953125 5.0390625 C2.17210937 6.22242188 2.14890625 7.40578125 2.125 8.625 C2.10695313 9.81351563 2.08890625 11.00203125 2.0703125 12.2265625 C2.04710937 13.14179687 2.02390625 14.05703125 2 15 C2.33 15 2.66 15 3 15 C3 12.36 3 9.72 3 7 C3.66 6.67 4.32 6.34 5 6 C5.06058594 6.69867188 5.12117187 7.39734375 5.18359375 8.1171875 C5.26738281 9.02726562 5.35117188 9.93734375 5.4375 10.875 C5.51871094 11.77992187 5.59992187 12.68484375 5.68359375 13.6171875 C5.86989285 16.01110861 5.86989285 16.01110861 7 18 C8.64363134 18.72159424 10.31050386 19.39351421 12 20 C12 20.66 12 21.32 12 22 C15.3 22.66 18.6 23.32 22 24 C22.33 23.34 22.66 22.68 23 22 C24.32 22.33 25.64 22.66 27 23 C26.625 24.9375 26.625 24.9375 26 27 C25.34 27.33 24.68 27.66 24 28 C23.67 30.31 23.34 32.62 23 35 C16.4 35 9.8 35 3 35 C3.99 34.505 3.99 34.505 5 34 C5 33.34 5 32.68 5 32 C4.01 31.67 3.02 31.34 2 31 C-0.62849569 20.76764179 -0.18464072 10.47323215 0 0 Z " fill="#1E191B" transform="translate(6,46)"/>
<path d="M0 0 C1.41791408 0.45445964 2.83428046 0.91374944 4.25 1.375 C5.43335938 1.75785156 5.43335938 1.75785156 6.640625 2.1484375 C8.86627958 2.95173667 10.90931672 3.89711662 13 5 C11.75 6.5 11.75 6.5 10 8 C8.68 8 7.36 8 6 8 C5.8453125 9.8253125 5.8453125 9.8253125 5.6875 11.6875 C5.21780277 15.42523151 4.32634716 17.95785371 2 21 C-1 23 -1 23 -4 23 C-3.44927817 25.75360915 -2.57878218 27.96037662 -1.4375 30.5625 C0 34 0 34 0 37 C-0.66 36.67 -1.32 36.34 -2 36 C-2 34.35 -2 32.7 -2 31 C-3.65 31.33 -5.3 31.66 -7 32 C-6.67 30.68 -6.34 29.36 -6 28 C-6.99 28 -7.98 28 -9 28 C-9.33 28.99 -9.66 29.98 -10 31 C-11.69562915 12.98865038 -11.69562915 12.98865038 -6.42333984 6.37207031 C-4.37163501 4.12399305 -2.26930075 2.03021371 0 0 Z " fill="#140D0E" transform="translate(13,6)"/>
<path d="M0 0 C-0.14148989 1.6045556 -0.28835686 3.20863767 -0.4375 4.8125 C-0.51871094 5.70582031 -0.59992187 6.59914063 -0.68359375 7.51953125 C-1 10 -1 10 -2 13 C-2.66 13 -3.32 13 -4 13 C-4.33 13.66 -4.66 14.32 -5 15 C-0.71 15 3.58 15 8 15 C8.66 13.02 9.32 11.04 10 9 C10.66 8.34 11.32 7.68 12 7 C12 9.97 12 12.94 12 16 C14.31 16.33 16.62 16.66 19 17 C18.34 18.32 17.68 19.64 17 21 C21.46334184 22.72293135 25.10201231 23.22240791 29.875 23.125 C31.02742188 23.10695313 32.17984375 23.08890625 33.3671875 23.0703125 C34.23601563 23.04710938 35.10484375 23.02390625 36 23 C36.62890625 25.33984375 36.62890625 25.33984375 37 28 C33.93010324 31.81411415 30.25405937 34.59553166 26 37 C25.01 36.67 24.02 36.34 23 36 C23.66 35.01 24.32 34.02 25 33 C24.6878236 30.35367713 24.6878236 30.35367713 24 28 C22.74703125 27.79503906 21.4940625 27.59007813 20.203125 27.37890625 C18.55206909 27.10685726 16.90102821 26.83471707 15.25 26.5625 C14.425 26.42779297 13.6 26.29308594 12.75 26.15429688 C11.95078125 26.02216797 11.1515625 25.89003906 10.328125 25.75390625 C9.5949707 25.63345947 8.86181641 25.5130127 8.10644531 25.38891602 C6.04378041 25.00808324 4.02862484 24.53121105 2 24 C2 23.34 2 22.68 2 22 C3.98 21.67 5.96 21.34 8 21 C8 20.34 8 19.68 8 19 C3.86581409 17.05543072 0.230003 16.62971979 -4.3125 16.375 C-5.56675781 16.30023438 -6.82101563 16.22546875 -8.11328125 16.1484375 C-9.06589844 16.09945312 -10.01851562 16.05046875 -11 16 C-11.33 15.01 -11.66 14.02 -12 13 C-11.01 13.33 -10.02 13.66 -9 14 C-7.49310338 12.49310338 -7.28283014 10.71960455 -6.6875 8.6875 C-3.87927946 0 -3.87927946 0 0 0 Z " fill="#F4ECDD" transform="translate(21,28)"/>
<path d="M0 0 C0.99 0 1.98 0 3 0 C2.67 1.32 2.34 2.64 2 4 C3.65 3.67 5.3 3.34 7 3 C6.67 5.31 6.34 7.62 6 10 C6.88042969 10.04898438 7.76085938 10.09796875 8.66796875 10.1484375 C10.41013672 10.26058594 10.41013672 10.26058594 12.1875 10.375 C13.33605469 10.44460937 14.48460937 10.51421875 15.66796875 10.5859375 C18.79959117 10.97509574 21.15285809 11.6809851 24 13 C22 15 22 15 20.0546875 15.1953125 C18.03645833 15.13020833 16.01822917 15.06510417 14 15 C13.67 17.64 13.34 20.28 13 23 C11.0549 20.08235 10.54723683 18.37462715 10 15 C9.34 15 8.68 15 8 15 C6.09391902 18.21182149 5.77733753 20.53882603 5.875 24.25 C5.89304687 25.14203125 5.91109375 26.0340625 5.9296875 26.953125 C5.95289063 27.62859375 5.97609375 28.3040625 6 29 C5.01 28.34 4.02 27.68 3 27 C2.90564044 30.69350295 3.23594434 34.11229854 3.875 37.75 C4.03742187 38.71421875 4.19984375 39.6784375 4.3671875 40.671875 C4.68042969 41.82429688 4.68042969 41.82429688 5 43 C5.66 43.33 6.32 43.66 7 44 C7 44.66 7 45.32 7 46 C5.515 46.495 5.515 46.495 4 47 C2.027696 43.31264904 0.68685904 40.12115424 0 36 C-0.33 35.34 -0.66 34.68 -1 34 C-1.08400529 32.40552536 -1.10727467 30.80759455 -1.09765625 29.2109375 C-1.09443359 28.26992188 -1.09121094 27.32890625 -1.08789062 26.359375 C-1.07951172 25.37453125 -1.07113281 24.3896875 -1.0625 23.375 C-1.05798828 22.38242187 -1.05347656 21.38984375 -1.04882812 20.3671875 C-1.03702145 17.9113984 -1.020554 15.45572896 -1 13 C-0.34 13 0.32 13 1 13 C0.76603516 12.09507813 0.76603516 12.09507813 0.52734375 11.171875 C0.33269531 10.37265625 0.13804687 9.5734375 -0.0625 8.75 C-0.25972656 7.96109375 -0.45695313 7.1721875 -0.66015625 6.359375 C-1.01497267 3.89605178 -0.76877544 2.34395868 0 0 Z " fill="#22283D" transform="translate(4,34)"/>
<path d="M0 0 C1.18142578 0.32484375 1.18142578 0.32484375 2.38671875 0.65625 C9.58332549 2.49585598 15.99304048 3.26030402 23.41796875 2.91015625 C26 3 26 3 28 5 C27.625 8.125 27.625 8.125 27 11 C30.56209836 11 31.60568237 10.17010757 34.5 8.1875 C35.2734375 7.66542969 36.046875 7.14335938 36.84375 6.60546875 C38.75258663 5.18421539 40.37637459 3.73290789 42 2 C42.18451025 17.74487472 42.18451025 17.74487472 41 25 C40.34 24.67 39.68 24.34 39 24 C39 23.01 39 22.02 39 21 C38.443125 20.896875 37.88625 20.79375 37.3125 20.6875 C34.55980585 19.86913147 32.4566847 18.47401082 30 17 C27.80869466 16.30420546 27.80869466 16.30420546 26 16 C26 15.34 26 14.68 26 14 C25.01 13.67 24.02 13.34 23 13 C23.66 12.01 24.32 11.02 25 10 C25.38499891 8.34450469 25.72793135 6.6777567 26 5 C25.20142578 5.24169922 25.20142578 5.24169922 24.38671875 5.48828125 C16.30295389 7.2214616 7.87989338 6.13692024 0 4 C0 2.68 0 1.36 0 0 Z " fill="#31292A" transform="translate(19,52)"/>
<path d="M0 0 C1.65 0 3.3 0 5 0 C10.1294964 8.9352518 10.1294964 8.9352518 10.0625 13.625 C10.05347656 14.44226562 10.04445313 15.25953125 10.03515625 16.1015625 C10.02355469 16.72804688 10.01195312 17.35453125 10 18 C9.34 18 8.68 18 8 18 C8 18.66 8 19.32 8 20 C6.1875 21.6875 6.1875 21.6875 4 23 C3.01 22.67 2.02 22.34 1 22 C0.67 20.35 0.34 18.7 0 17 C-0.33 17 -0.66 17 -1 17 C-1.02699725 14.72923158 -1.04639453 12.45837179 -1.0625 10.1875 C-1.07990234 8.29064453 -1.07990234 8.29064453 -1.09765625 6.35546875 C-1 3 -1 3 0 0 Z " fill="#DEDFDE" transform="translate(52,24)"/>
<path d="M0 0 C1.32 0.33 2.64 0.66 4 1 C3.85923111 4.47939051 3.71144333 7.95845059 3.5625 11.4375 C3.52318359 12.41138672 3.48386719 13.38527344 3.44335938 14.38867188 C3.18631833 20.30061599 2.72280379 26.12645997 2 32 C1.34 31.01 0.68 30.02 0 29 C-1.65 30.65 -3.3 32.3 -5 34 C-4.67 33.071875 -4.34 32.14375 -4 31.1875 C-2.85032996 28.07970709 -2.85032996 28.07970709 -3 25 C-3.66 25.33 -4.32 25.66 -5 26 C-11.74803677 26.58192025 -17.00617046 26.19670909 -23 23 C-22.505 21.515 -22.505 21.515 -22 20 C-20.329375 19.5359375 -20.329375 19.5359375 -18.625 19.0625 C-14.83732365 17.952319 -13.89054174 17.33625014 -12 14 C-12.33 15.65 -12.66 17.3 -13 19 C-11.35 19 -9.7 19 -8 19 C-8 19.33 -8 19.66 -8 20 C-14.435 20.495 -14.435 20.495 -21 21 C-21 21.66 -21 22.32 -21 23 C-18.69 23 -16.38 23 -14 23 C-14 22.67 -14 22.34 -14 22 C-12.02 22 -10.04 22 -8 22 C-8 22.66 -8 23.32 -8 24 C-6.68 24 -5.36 24 -4 24 C-4 23.34 -4 22.68 -4 22 C-4.66 21.67 -5.32 21.34 -6 21 C-2.25 18 -2.25 18 0 18 C0 17.34 0 16.68 0 16 C0.66 16 1.32 16 2 16 C1.42978066 10.6496441 0.79265639 5.32212148 0 0 Z " fill="#2F2E31" transform="translate(60,26)"/>
<path d="M0 0 C0.66 0 1.32 0 2 0 C2 9.9 2 19.8 2 30 C0.02 30 -1.96 30 -4 30 C-4 29.01 -4 28.02 -4 27 C-4.99 26.67 -5.98 26.34 -7 26 C-7.33 25.01 -7.66 24.02 -8 23 C-7.34 23 -6.68 23 -6 23 C-5.67 23.66 -5.34 24.32 -5 25 C-4.91959473 24.31373535 -4.83918945 23.6274707 -4.75634766 22.92041016 C-4.38813511 19.82080639 -4.00673983 16.72296558 -3.625 13.625 C-3.49867187 12.54476562 -3.37234375 11.46453125 -3.2421875 10.3515625 C-3.11328125 9.3203125 -2.984375 8.2890625 -2.8515625 7.2265625 C-2.67874756 5.79691162 -2.67874756 5.79691162 -2.50244141 4.33837891 C-2 2 -2 2 0 0 Z " fill="#222B2B" transform="translate(64,51)"/>
<path d="M0 0 C12.66970387 -0.55353075 12.66970387 -0.55353075 18 3 C17.67 3.99 17.34 4.98 17 6 C15.02 6 13.04 6 11 6 C11 6.66 11 7.32 11 8 C16.61 8.66 22.22 9.32 28 10 C26 12 26 12 23.93359375 12.08203125 C17.95691982 11.4366627 12.61255367 10.15554597 7 8 C7 9.32 7 10.64 7 12 C14.26 12.66 21.52 13.32 29 14 C29.33 13.34 29.66 12.68 30 12 C30 13.32 30 14.64 30 16 C23.11539129 16.27973579 16.66861789 15.61479636 9.8828125 14.4375 C6.82685063 13.89997101 6.82685063 13.89997101 3 14 C2.34 12.02 1.68 10.04 1 8 C0.34 8 -0.32 8 -1 8 C-1 7.34 -1 6.68 -1 6 C-1.66 5.34 -2.32 4.68 -3 4 C-2.01 3.67 -1.02 3.34 0 3 C3 5 3 5 3.6875 7.625 C3.790625 8.40875 3.89375 9.1925 4 10 C4.33 10 4.66 10 5 10 C5.33 8.35 5.66 6.7 6 5 C8.64 4.67 11.28 4.34 14 4 C10.71508627 1.81005752 9.16904361 1.64722661 5.3125 1.375 C4.31863281 1.30023438 3.32476562 1.22546875 2.30078125 1.1484375 C1.54152344 1.09945312 0.78226563 1.05046875 0 1 C0 0.67 0 0.34 0 0 Z " fill="#3C3634" transform="translate(12,44)"/>
<path d="M0 0 C0.67090715 7.24579719 -1.41874318 11.75838097 -5 18 C-7.64 18 -10.28 18 -13 18 C-12.54762239 16.08191891 -12.08785537 14.16557967 -11.625 12.25 C-11.24214844 10.64898437 -11.24214844 10.64898437 -10.8515625 9.015625 C-9.07234043 2.71489362 -9.07234043 2.71489362 -6.125 0.75 C-4 0 -4 0 0 0 Z " fill="#D9DEDE" transform="translate(33,23)"/>
<path d="M0 0 C4.29 0.99 8.58 1.98 13 3 C13.33 2.34 13.66 1.68 14 1 C15.32 1.33 16.64 1.66 18 2 C17.625 3.9375 17.625 3.9375 17 6 C16.01 6.495 16.01 6.495 15 7 C14.59270772 9.32156597 14.25561323 11.6568787 14 14 C9.71 14 5.42 14 1 14 C1.99 11.03 2.98 8.06 4 5 C4.99 5.33 5.98 5.66 7 6 C7.33 5.67 7.66 5.34 8 5 C6.865625 4.731875 5.73125 4.46375 4.5625 4.1875 C3.386875 3.795625 2.21125 3.40375 1 3 C0.67 2.01 0.34 1.02 0 0 Z " fill="#5E5D61" transform="translate(15,67)"/>
<path d="M0 0 C0.99 0 1.98 0 3 0 C3 3.96 3 7.92 3 12 C3.66 12 4.32 12 5 12 C5.66 10.68 6.32 9.36 7 8 C8.32 8 9.64 8 11 8 C9.78798296 10.86476756 8.73686895 12.23807095 6.375 14.375 C2.7308151 18.49728496 3.72457003 23.58207786 4.01953125 28.7578125 C4.00043058 31.92852305 3.78823322 33.43133511 2 36 C1.01 36.495 1.01 36.495 0 37 C0 24.79 0 12.58 0 0 Z " fill="#050406" transform="translate(0,0)"/>
<path d="M0 0 C0 0.66 0 1.32 0 2 C-1.6396875 2.2165625 -1.6396875 2.2165625 -3.3125 2.4375 C-6.93122987 2.88288104 -6.93122987 2.88288104 -10 4 C-9.42055068 5.99863756 -9.42055068 5.99863756 -8 8 C-6.01276732 8.70381157 -4.01222047 9.3711811 -2 10 C-1.01 11.485 -1.01 11.485 0 13 C-2.92879371 12.37240135 -5.36095629 11.41377341 -8 10 C-8.33 11.32 -8.66 12.64 -9 14 C-9.33 12.68 -9.66 11.36 -10 10 C-10.33 11.65 -10.66 13.3 -11 15 C-12.65 15 -14.3 15 -16 15 C-16 12.69 -16 10.38 -16 8 C-15.01 7.67 -14.02 7.34 -13 7 C-13 5.68 -13 4.36 -13 3 C-14.5159375 3.309375 -14.5159375 3.309375 -16.0625 3.625 C-20.49506869 4.0471494 -22.86108962 3.4359485 -27 2 C-27 1.34 -27 0.68 -27 0 C-26.37432129 0.00523682 -25.74864258 0.01047363 -25.10400391 0.01586914 C-22.27767943 0.03661618 -19.45137095 0.04965286 -16.625 0.0625 C-15.64015625 0.07087891 -14.6553125 0.07925781 -13.640625 0.08789062 C-12.69960938 0.09111328 -11.75859375 0.09433594 -10.7890625 0.09765625 C-9.91975098 0.10289307 -9.05043945 0.10812988 -8.15478516 0.11352539 C-0.89629915 -0.26888975 -0.89629915 -0.26888975 0 0 Z " fill="#0D0B0C" transform="translate(45,66)"/>
<path d="M0 0 C0.8125 2.1875 0.8125 2.1875 1 5 C-2.06989676 8.81411415 -5.74594063 11.59553166 -10 14 C-10.99 13.67 -11.98 13.34 -13 13 C-12.34 12.01 -11.68 11.02 -11 10 C-11.3121764 7.35367713 -11.3121764 7.35367713 -12 5 C-13.65 4.67 -15.3 4.34 -17 4 C-15.14848735 1.59367868 -14.19670966 1.03534837 -11.15234375 0.48828125 C-9.56099609 0.40126953 -9.56099609 0.40126953 -7.9375 0.3125 C-6.87402344 0.24675781 -5.81054688 0.18101563 -4.71484375 0.11328125 C-3.14414239 0.04774119 -1.57206814 0 0 0 Z " fill="#F6EDDD" transform="translate(57,51)"/>
<path d="M0 0 C2.97 0.99 5.94 1.98 9 3 C9 3.66 9 4.32 9 5 C3.25 6.125 3.25 6.125 1 5 C-0.58321067 10.47774766 -0.58321067 10.47774766 -2 16 C-4.64 16 -7.28 16 -10 16 C-9.52112335 11.23735403 -7.50511358 8.77358348 -4.4375 5.1875 C-3.61121094 4.21167969 -2.78492188 3.23585938 -1.93359375 2.23046875 C-1.29550781 1.49441406 -0.65742188 0.75835937 0 0 Z " fill="#464060" transform="translate(13,6)"/>
<path d="M0 0 C2 2 2 2 2.125 4.625 C2.08375 5.40875 2.0425 6.1925 2 7 C2.66 7 3.32 7 4 7 C4.33 9.64 4.66 12.28 5 15 C5.33 15 5.66 15 6 15 C6.33 18.3 6.66 21.6 7 25 C7.66 25 8.32 25 9 25 C9 25.66 9 26.32 9 27 C7.68 27 6.36 27 5 27 C5 26.34 5 25.68 5 25 C1.43956007 25.6916516 1.43956007 25.6916516 -2.0625 26.625 C-4.33615837 27.06506291 -5.81582708 26.70205558 -8 26 C-8 25.34 -8 24.68 -8 24 C-5.36 23.34 -2.72 22.68 0 22 C0 14.74 0 7.48 0 0 Z " fill="#969592" transform="translate(47,23)"/>
<path d="M0 0 C0.04898437 1.31613281 0.09796875 2.63226563 0.1484375 3.98828125 C0.34662133 17.67721277 0.34662133 17.67721277 3 31 C3.66 31.33 4.32 31.66 5 32 C5 32.66 5 33.32 5 34 C3.515 34.495 3.515 34.495 2 35 C0.027696 31.31264904 -1.31314096 28.12115424 -2 24 C-2.33 23.34 -2.66 22.68 -3 22 C-3.08400529 20.40552536 -3.10727467 18.80759455 -3.09765625 17.2109375 C-3.09443359 16.26992188 -3.09121094 15.32890625 -3.08789062 14.359375 C-3.07951172 13.37453125 -3.07113281 12.3896875 -3.0625 11.375 C-3.05798828 10.38242187 -3.05347656 9.38984375 -3.04882812 8.3671875 C-3.03702145 5.9113984 -3.020554 3.45572896 -3 1 C-1 0 -1 0 0 0 Z " fill="#D1D8D9" transform="translate(6,46)"/>
<path d="M0 0 C4.29 0 8.58 0 13 0 C13 0.66 13 1.32 13 2 C13.66 2 14.32 2 15 2 C15 2.66 15 3.32 15 4 C12.03 3.505 12.03 3.505 9 3 C8.27683594 3.97453125 8.27683594 3.97453125 7.5390625 4.96875 C6.90742188 5.8040625 6.27578125 6.639375 5.625 7.5 C4.99851562 8.3353125 4.37203125 9.170625 3.7265625 10.03125 C3.15679687 10.6809375 2.58703125 11.330625 2 12 C1.34 12 0.68 12 0 12 C0 8.04 0 4.08 0 0 Z " fill="#73868D" transform="translate(3,0)"/>
<path d="M0 0 C0.66 0 1.32 0 2 0 C2.375 2.1875 2.375 2.1875 2 5 C0.17130326 7.08832653 -1.69052559 8.38336791 -4 10 C-4.66 10 -5.32 10 -6 10 C-6.495 9.401875 -6.99 8.80375 -7.5 8.1875 C-10.71346495 5.37571817 -13.76479654 4.7291136 -17.85546875 3.7109375 C-18.56316406 3.47632813 -19.27085938 3.24171875 -20 3 C-20.33 2.34 -20.66 1.68 -21 1 C-20.39414062 1.0721875 -19.78828125 1.144375 -19.1640625 1.21875 C-13.08165405 1.8924937 -7.11697862 2.11713363 -1 2 C-0.67 1.34 -0.34 0.68 0 0 Z " fill="#D25C53" transform="translate(43,57)"/>
<path d="M0 0 C1.32 0.33 2.64 0.66 4 1 C3.9192124 4.60509105 3.80636316 8.20847921 3.6875 11.8125 C3.65366211 13.34874023 3.65366211 13.34874023 3.61914062 14.91601562 C3.58369141 15.89892578 3.54824219 16.88183594 3.51171875 17.89453125 C3.48553467 18.80050049 3.45935059 19.70646973 3.43237305 20.63989258 C2.92637669 23.40187268 2.23455643 24.34351732 0 26 C-0.66 26 -1.32 26 -2 26 C-2.28875 25.360625 -2.5775 24.72125 -2.875 24.0625 C-3.82823451 21.84793921 -3.82823451 21.84793921 -6 21 C-2.25 18 -2.25 18 0 18 C0 17.34 0 16.68 0 16 C0.66 16 1.32 16 2 16 C1.42978066 10.6496441 0.79265639 5.32212148 0 0 Z " fill="#253051" transform="translate(60,26)"/>
<path d="M0 0 C0.33 0 0.66 0 1 0 C1.18451025 15.74487472 1.18451025 15.74487472 0 23 C-0.66 22.67 -1.32 22.34 -2 22 C-2.88671875 19.19921875 -2.88671875 19.19921875 -3.6875 15.6875 C-4.09548828 13.96080078 -4.09548828 13.96080078 -4.51171875 12.19921875 C-5.20702971 7.64354136 -4.69117333 5.95036332 -2 2.25 C-1.34 1.5075 -0.68 0.765 0 0 Z " fill="#B2B2B2" transform="translate(60,54)"/>
<path d="M0 0 C0.99 0 1.98 0 3 0 C4.85961414 4.2505466 5.93204565 8.49933525 7 13 C4.36 13 1.72 13 -1 13 C-1.02696365 11.20841511 -1.04637917 9.41671527 -1.0625 7.625 C-1.07410156 6.62726563 -1.08570312 5.62953125 -1.09765625 4.6015625 C-1 2 -1 2 0 0 Z " fill="#060606" transform="translate(1,68)"/>
<path d="M0 0 C0.66 0.33 1.32 0.66 2 1 C2.34615998 6.65394631 1.43425238 10.03006806 -1 15 C-4.3 15 -7.6 15 -11 15 C-11 14.01 -11 13.02 -11 12 C-8.36 12 -5.72 12 -3 12 C-2.87625 11.319375 -2.7525 10.63875 -2.625 9.9375 C-1.90899123 6.5722588 -0.97054875 3.29986575 0 0 Z " fill="#6D080C" transform="translate(14,10)"/>
<path d="M0 0 C0.99 0.33 1.98 0.66 3 1 C2.75 4.375 2.75 4.375 2 8 C-0.99459327 10.55094982 -4.20536415 10.17248345 -8 10 C-7.01 7.03 -6.02 4.06 -5 1 C-4.01 1.33 -3.02 1.66 -2 2 C-1.34 1.34 -0.68 0.68 0 0 Z " fill="#433F5E" transform="translate(24,71)"/>
<path d="M0 0 C-0.14148989 1.6045556 -0.28835686 3.20863767 -0.4375 4.8125 C-0.51871094 5.70582031 -0.59992187 6.59914063 -0.68359375 7.51953125 C-1 10 -1 10 -2 13 C-2.66 13 -3.32 13 -4 13 C-4.33 13.66 -4.66 14.32 -5 15 C-3.68 15.33 -2.36 15.66 -1 16 C-4.3 16 -7.6 16 -11 16 C-11.33 15.01 -11.66 14.02 -12 13 C-11.01 13.33 -10.02 13.66 -9 14 C-7.49310338 12.49310338 -7.28283014 10.71960455 -6.6875 8.6875 C-3.87927946 0 -3.87927946 0 0 0 Z " fill="#D6D5D0" transform="translate(21,28)"/>
<path d="M0 0 C0.83402344 0.20496094 1.66804688 0.40992188 2.52734375 0.62109375 C9.03033872 2.17793905 15.33643284 3.43529092 22 4 C22 4.66 22 5.32 22 6 C14.31604457 6.2137731 7.43659188 6.01670288 0 4 C0 2.68 0 1.36 0 0 Z " fill="#F6F6F6" transform="translate(19,52)"/>
<path d="M0 0 C0.33 0 0.66 0 1 0 C1.05437607 1.58294782 1.09296271 3.16644256 1.125 4.75 C1.14820313 5.63171875 1.17140625 6.5134375 1.1953125 7.421875 C1 10 1 10 -1 14 C-3.97 14 -6.94 14 -10 14 C-10 12.02 -10 10.04 -10 8 C-3.25 7.875 -3.25 7.875 -1 9 C-0.67 6.03 -0.34 3.06 0 0 Z " fill="#E9EBEA" transform="translate(47,29)"/>
<path d="M0 0 C3.12270126 2.51830747 3.94523098 3.7261549 4.75 7.75 C4.87375 9.35875 4.87375 9.35875 5 11 C1.78147169 10.36934243 -0.50801069 9.21979305 -3.25 7.4375 C-3.95640625 6.98246094 -4.6628125 6.52742188 -5.390625 6.05859375 C-6.18726563 5.53458984 -6.18726563 5.53458984 -7 5 C-6.01 4.67 -5.02 4.34 -4 4 C-2.62804426 2.70644173 -1.28817344 1.37701298 0 0 Z " fill="#626974" transform="translate(53,62)"/>
<path d="M0 0 C2.31 0 4.62 0 7 0 C7 0.66 7 1.32 7 2 C9.31 2 11.62 2 14 2 C14 1.34 14 0.68 14 0 C15.65 0.33 17.3 0.66 19 1 C17 3 17 3 15.0546875 3.1953125 C13.03645833 3.13020833 11.01822917 3.06510417 9 3 C8.67 5.64 8.34 8.28 8 11 C6 8 6 8 5.6875 5.4375 C5.460625 4.633125 5.23375 3.82875 5 3 C2.52363988 1.62533375 2.52363988 1.62533375 0 1 C0 0.67 0 0.34 0 0 Z " fill="#E7E7E6" transform="translate(9,46)"/>
<path d="M0 0 C0.99 0 1.98 0 3 0 C3.103125 0.515625 3.20625 1.03125 3.3125 1.5625 C4.0064595 4.2374487 4.0064595 4.2374487 5.5625 7.5625 C7 11 7 11 7 14 C6.34 13.67 5.68 13.34 5 13 C5 11.35 5 9.7 5 8 C3.35 8.33 1.7 8.66 0 9 C0.33 7.68 0.66 6.36 1 5 C0.01 5 -0.98 5 -2 5 C-2.33 5.99 -2.66 6.98 -3 8 C-3 6.35 -3 4.7 -3 3 C-2.01 2.67 -1.02 2.34 0 2 C0 1.34 0 0.68 0 0 Z " fill="#283148" transform="translate(6,29)"/>
<path d="M0 0 C0.99 0 1.98 0 3 0 C2.67 1.32 2.34 2.64 2 4 C3.65 3.67 5.3 3.34 7 3 C7 3.99 7 4.98 7 6 C5.68 6 4.36 6 3 6 C3.33 7.32 3.66 8.64 4 10 C2.68 10.33 1.36 10.66 0 11 C-1.28571429 3.57142857 -1.28571429 3.57142857 0 0 Z " fill="#3B4FAC" transform="translate(4,34)"/>
<path d="M0 0 C0.33 0 0.66 0 1 0 C1 2.31 1 4.62 1 7 C1.66 7 2.32 7 3 7 C3 8.98 3 10.96 3 13 C5.97 13 8.94 13 12 13 C11 15 11 15 8.875 15.75 C5.22012975 16.0678148 2.45380899 15.15126966 -1 14 C-0.34 13.01 0.32 12.02 1 11 C0.67 11 0.34 11 0 11 C0 7.37 0 3.74 0 0 Z " fill="#8E8B84" transform="translate(34,30)"/>
<path d="M0 0 C2 2 2 2 2.125 5.30078125 C2.09305953 6.63828849 2.05097872 7.97558303 2 9.3125 C1.84623093 14.21869436 2.06860954 17.5147048 4 22 C3.125 24.8125 3.125 24.8125 2 27 C1.67 27 1.34 27 1 27 C-0.01894076 21.15111957 -0.11798453 15.49080831 -0.0625 9.5625 C-0.05798828 8.64017578 -0.05347656 7.71785156 -0.04882812 6.76757812 C-0.03713938 4.51164952 -0.02075455 2.25586033 0 0 Z " fill="#585756" transform="translate(6,46)"/>
<path d="M0 0 C6.6 0.66 13.2 1.32 20 2 C20.33 1.34 20.66 0.68 21 0 C21 1.32 21 2.64 21 4 C13.44862068 4.30071865 6.41143564 3.42625566 -1 2 C-0.67 1.34 -0.34 0.68 0 0 Z " fill="#6E3F3A" transform="translate(21,56)"/>
<path d="M0 0 C0 0.66 0 1.32 0 2 C-1.32 2 -2.64 2 -4 2 C-4 1.34 -4 0.68 -4 0 C-7.56043993 0.6916516 -7.56043993 0.6916516 -11.0625 1.625 C-13.33615837 2.06506291 -14.81582708 1.70205558 -17 1 C-17 0.34 -17 -0.32 -17 -1 C-11.82863361 -2.55140992 -4.88708355 -2.44354178 0 0 Z " fill="#C4C3C4" transform="translate(56,48)"/>
<path d="M0 0 C1.37432457 3.81756824 0.67975039 7.07255329 0 11 C-0.66 10.67 -1.32 10.34 -2 10 C-2.66 11.98 -3.32 13.96 -4 16 C-4.66 15.67 -5.32 15.34 -6 15 C-6 14.01 -6 13.02 -6 12 C-5.34 12 -4.68 12 -4 12 C-4.33 9.69 -4.66 7.38 -5 5 C-4.01 4.67 -3.02 4.34 -2 4 C-0.79117904 1.99983534 -0.79117904 1.99983534 0 0 Z " fill="#6A6D74" transform="translate(18,25)"/>
<path d="M0 0 C2.97 0.99 5.94 1.98 9 3 C8.01 3.33 7.02 3.66 6 4 C5.67 5.98 5.34 7.96 5 10 C4.34 10 3.68 10 3 10 C2.67 7.69 2.34 5.38 2 3 C1.34 3 0.68 3 0 3 C0 2.01 0 1.02 0 0 Z " fill="#C1C3C2" transform="translate(46,20)"/>
<path d="M0 0 C1.32 0.33 2.64 0.66 4 1 C3.67 6.28 3.34 11.56 3 17 C2.01 16.67 1.02 16.34 0 16 C0.66 16 1.32 16 2 16 C1.42978066 10.6496441 0.79265639 5.32212148 0 0 Z " fill="#8E8E8E" transform="translate(60,26)"/>
<path d="M0 0 C2.16295027 2.16295027 2.5534013 3.05244857 3 6 C2.67 6.99 2.34 7.98 2 9 C0 8 -2 7 -4 6 C-3.67 4.35 -3.34 2.7 -3 1 C-2.01 0.67 -1.02 0.34 0 0 Z " fill="#8B94A6" transform="translate(12,28)"/>
<path d="M0 0 C2.4375 0.6875 2.4375 0.6875 5 2 C5.8125 4.625 5.8125 4.625 6 7 C6.66 7 7.32 7 8 7 C8.33 8.32 8.66 9.64 9 11 C7.68 11 6.36 11 5 11 C4.34 9.02 3.68 7.04 3 5 C2.34 5 1.68 5 1 5 C1 4.34 1 3.68 1 3 C0.34 2.34 -0.32 1.68 -1 1 C-0.67 0.67 -0.34 0.34 0 0 Z " fill="#423B39" transform="translate(10,47)"/>
<path d="M0 0 C0.33 0.66 0.66 1.32 1 2 C2.32 2 3.64 2 5 2 C5 3.98 5 5.96 5 8 C4.01 8 3.02 8 2 8 C1.34 8.66 0.68 9.32 0 10 C0 6.7 0 3.4 0 0 Z " fill="#F6F7F7" transform="translate(35,27)"/>
<path d="M0 0 C3 2 3 2 3.6875 5.125 C3.790625 6.07375 3.89375 7.0225 4 8 C2.35 8 0.7 8 -1 8 C-1.33 5.69 -1.66 3.38 -2 1 C-1.34 0.67 -0.68 0.34 0 0 Z " fill="#F4F4F5" transform="translate(57,26)"/>
<path d="M0 0 C2.97 0.99 5.94 1.98 9 3 C9 3.66 9 4.32 9 5 C3.375 6.125 3.375 6.125 0 5 C-0.75 3 -0.75 3 -1 1 C-0.67 0.67 -0.34 0.34 0 0 Z " fill="#6D5F61" transform="translate(13,6)"/>
<path d="M0 0 C1.32 0.66 2.64 1.32 4 2 C3.01 3.485 3.01 3.485 2 5 C1.75849227 7.51584891 1.75849227 7.51584891 1.875 10.1875 C1.89304687 11.08855469 1.91109375 11.98960938 1.9296875 12.91796875 C1.95289063 13.60503906 1.97609375 14.29210938 2 15 C1.01 14.34 0.02 13.68 -1 13 C-1.2982655 8.45145106 -1.10962199 4.43848796 0 0 Z " fill="#E5E0D6" transform="translate(8,48)"/>
<path d="M0 0 C0.33 0 0.66 0 1 0 C1.33 1.98 1.66 3.96 2 6 C2.33 6 2.66 6 3 6 C3.33 8.97 3.66 11.94 4 15 C2.68 14.67 1.36 14.34 0 14 C-1.03115279 10.73086376 -0.9638984 8.13958652 -0.5625 4.75 C-0.46066406 3.85796875 -0.35882813 2.9659375 -0.25390625 2.046875 C-0.17011719 1.37140625 -0.08632813 0.6959375 0 0 Z " fill="#676762" transform="translate(50,32)"/>
<path d="M0 0 C0.05447047 1.41623216 0.09300508 2.83308191 0.125 4.25 C0.14820313 5.03890625 0.17140625 5.8278125 0.1953125 6.640625 C-0.0171622 9.20731941 -0.71345895 10.7916067 -2 13 C-4.42603207 4.8317769 -4.42603207 4.8317769 -2.6875 1.4375 C-1 0 -1 0 0 0 Z " fill="#F2F2F1" transform="translate(61,54)"/>
<path d="M0 0 C0.33 1.32 0.66 2.64 1 4 C3.31 4.33 5.62 4.66 8 5 C4.79619983 7.13586678 3.98060033 7.23132175 0.3125 7.125 C-0.89986328 7.09792969 -0.89986328 7.09792969 -2.13671875 7.0703125 C-3.05904297 7.03550781 -3.05904297 7.03550781 -4 7 C-4 5.35 -4 3.7 -4 2 C-3.67 2.99 -3.34 3.98 -3 5 C-2.34 5 -1.68 5 -1 5 C-0.67 3.35 -0.34 1.7 0 0 Z " fill="#72716D" transform="translate(20,36)"/>
<path d="M0 0 C3.3 0 6.6 0 10 0 C10 0.66 10 1.32 10 2 C8.68 2.33 7.36 2.66 6 3 C6.33 3.99 6.66 4.98 7 6 C6.34 6 5.68 6 5 6 C3.2856382 4.04072937 1.61594832 2.04119788 0 0 Z " fill="#BC4940" transform="translate(32,61)"/>
<path d="M0 0 C2.8125 -0.25 2.8125 -0.25 6 0 C6.99 1.32 7.98 2.64 9 4 C5.37 4 1.74 4 -2 4 C-1.34 2.68 -0.68 1.36 0 0 Z " fill="#54504C" transform="translate(46,48)"/>
<path d="M0 0 C2.31 0 4.62 0 7 0 C7.33 1.32 7.66 2.64 8 4 C5.36 4 2.72 4 0 4 C0 2.68 0 1.36 0 0 Z " fill="#2F2839" transform="translate(3,18)"/>
<path d="M0 0 C-1.25 1.5 -1.25 1.5 -3 3 C-4.32 3 -5.64 3 -7 3 C-7 4.65 -7 6.3 -7 8 C-8.76462683 4.91190305 -9 3.76687864 -9 0 C-5.62182575 -0.84454356 -3.32534757 -1.10844919 0 0 Z " fill="#1D1C21" transform="translate(26,11)"/>
<path d="M0 0 C1.4540625 0.0309375 1.4540625 0.0309375 2.9375 0.0625 C2.9375 1.7125 2.9375 3.3625 2.9375 5.0625 C2.2775 4.7325 1.6175 4.4025 0.9375 4.0625 C0.6075 4.3925 0.2775 4.7225 -0.0625 5.0625 C-1.0525 5.0625 -2.0425 5.0625 -3.0625 5.0625 C-3.625 3.125 -3.625 3.125 -4.0625 1.0625 C-3.0625 0.0625 -3.0625 0.0625 0 0 Z " fill="#5C5F5C" transform="translate(13.0625,71.9375)"/>
<path d="M0 0 C4.455 0.99 4.455 0.99 9 2 C8.01 3.485 8.01 3.485 7 5 C4.69 4.67 2.38 4.34 0 4 C0 2.68 0 1.36 0 0 Z " fill="#ECEEED" transform="translate(19,52)"/>
<path d="M0 0 C3.96 0 7.92 0 12 0 C12 0.99 12 1.98 12 3 C9.69 3 7.38 3 5 3 C5 2.34 5 1.68 5 1 C3.35 1 1.7 1 0 1 C0 0.67 0 0.34 0 0 Z " fill="#7B7A7B" transform="translate(11,45)"/>
<path d="M0 0 C0.66 0 1.32 0 2 0 C1.38722388 2.96175123 0.74627478 4.38058783 -1 7 C-5.455 6.01 -5.455 6.01 -10 5 C-10 4.67 -10 4.34 -10 4 C-7.03 4 -4.06 4 -1 4 C-0.67 2.68 -0.34 1.36 0 0 Z " fill="#ECE6DA" transform="translate(30,39)"/>
<path d="M0 0 C2.475 0.495 2.475 0.495 5 1 C5.33 2.65 5.66 4.3 6 6 C4.02 6 2.04 6 0 6 C0 4.02 0 2.04 0 0 Z " fill="#515257" transform="translate(34,75)"/>
<path d="M0 0 C2 2 2 2 3 5.5625 C3.33 6.696875 3.66 7.83125 4 9 C4.66 9.33 5.32 9.66 6 10 C6 10.66 6 11.32 6 12 C5.01 12.33 4.02 12.66 3 13 C0.33409063 8.44573816 -0.31563182 5.26053037 0 0 Z " fill="#BFC1C3" transform="translate(5,68)"/>
<path d="M0 0 C0.99 0.33 1.98 0.66 3 1 C3.33 3.97 3.66 6.94 4 10 C3.67 9.34 3.34 8.68 3 8 C2.01 8 1.02 8 0 8 C0 5.36 0 2.72 0 0 Z " fill="#35393D" transform="translate(3,70)"/>
<path d="M0 0 C0.66 0 1.32 0 2 0 C2.37254569 3.35291118 2.31050198 4.6038423 0.1875 7.3125 C-2 9 -2 9 -5 9 C-5 8.34 -5 7.68 -5 7 C-3.68 6.67 -2.36 6.34 -1 6 C-0.67 4.02 -0.34 2.04 0 0 Z " fill="#C6544E" transform="translate(43,57)"/>
<path d="M0 0 C0.99 0 1.98 0 3 0 C2.67 1.65 2.34 3.3 2 5 C0.68 5 -0.64 5 -2 5 C-2.33 5.99 -2.66 6.98 -3 8 C-3 6.35 -3 4.7 -3 3 C-2.01 2.67 -1.02 2.34 0 2 C0 1.34 0 0.68 0 0 Z " fill="#1F252E" transform="translate(6,29)"/>
<path d="M0 0 C0.66 0.33 1.32 0.66 2 1 C2 3.31 2 5.62 2 8 C1.01 8.33 0.02 8.66 -1 9 C-1.09765625 2.84765625 -1.09765625 2.84765625 -1 1 C-0.67 0.67 -0.34 0.34 0 0 Z " fill="#7E0E11" transform="translate(14,10)"/>
<path d="M0 0 C0.99 0.33 1.98 0.66 3 1 C2.67 3.31 2.34 5.62 2 8 C1.01 8 0.02 8 -1 8 C-0.67 6.68 -0.34 5.36 0 4 C-0.66 3.67 -1.32 3.34 -2 3 C-1.34 2.01 -0.68 1.02 0 0 Z " fill="#3B3855" transform="translate(24,71)"/>
<path d="M0 0 C2 2 2 2 2 5 C-0.3125 5.6875 -0.3125 5.6875 -3 6 C-4.8125 4.5625 -4.8125 4.5625 -6 3 C-5.01 3 -4.02 3 -3 3 C-1.31201173 1.56249809 -1.31201173 1.56249809 0 0 Z " fill="#717B95" transform="translate(52,63)"/>
<path d="M0 0 C0.66 0.33 1.32 0.66 2 1 C2.04254356 2.99954746 2.04080783 5.00041636 2 7 C1 8 1 8 -1.5625 8.0625 C-2.366875 8.041875 -3.17125 8.02125 -4 8 C-3.34 7.67 -2.68 7.34 -2 7 C-1.26924352 4.6859378 -0.59861742 2.35171131 0 0 Z " fill="#252627" transform="translate(13,73)"/>
<path d="M0 0 C1.09658936 3.28976808 0.79953138 4.71303767 0 8 C-0.99 8 -1.98 8 -3 8 C-3.33 6.35 -3.66 4.7 -4 3 C-3.01 2.67 -2.02 2.34 -1 2 C-0.67 1.34 -0.34 0.68 0 0 Z " fill="#405AB3" transform="translate(61,44)"/>
<path d="M0 0 C0.66 0.33 1.32 0.66 2 1 C2.29296875 7.0546875 2.29296875 7.0546875 2 9 C1.01 9.66 0.02 10.32 -1 11 C-0.67 7.37 -0.34 3.74 0 0 Z " fill="#020005" transform="translate(63,42)"/>
<path d="M0 0 C0.99 0.33 1.98 0.66 3 1 C3 1.66 3 2.32 3 3 C-1.95 3 -6.9 3 -12 3 C-12 2.67 -12 2.34 -12 2 C-11.21753906 1.93941406 -10.43507813 1.87882812 -9.62890625 1.81640625 C-8.61699219 1.73261719 -7.60507812 1.64882812 -6.5625 1.5625 C-5.55316406 1.48128906 -4.54382813 1.40007812 -3.50390625 1.31640625 C-1.06359221 1.26788532 -1.06359221 1.26788532 0 0 Z " fill="#AF6562" transform="translate(34,64)"/>
<path d="M0 0 C3 3 3 3 3.1875 6.6875 C3.125625 7.780625 3.06375 8.87375 3 10 C2.01 9.67 1.02 9.34 0 9 C0 6.03 0 3.06 0 0 Z " fill="#455A59" transform="translate(63,71)"/>
<path d="M0 0 C0.99 0 1.98 0 3 0 C2.67 1.32 2.34 2.64 2 4 C3.65 3.67 5.3 3.34 7 3 C7 3.99 7 4.98 7 6 C4.03 5.505 4.03 5.505 1 5 C0.67 3.35 0.34 1.7 0 0 Z " fill="#405EBF" transform="translate(4,34)"/>
<path d="M0 0 C2.5654594 2.5654594 2.54046087 4.47686668 3 8 C1.68 7.67 0.36 7.34 -1 7 C-0.67 4.69 -0.34 2.38 0 0 Z " fill="#080A0F" transform="translate(2,39)"/>
<path d="M0 0 C0.99 0.99 1.98 1.98 3 3 C2.34 5.31 1.68 7.62 1 10 C0.67 10 0.34 10 0 10 C0 6.7 0 3.4 0 0 Z " fill="#464452" transform="translate(7,63)"/>
<path d="M0 0 C0.66 0.33 1.32 0.66 2 1 C2 2.32 2 3.64 2 5 C1.34 5 0.68 5 0 5 C0 6.65 0 8.3 0 10 C-0.33 10 -0.66 10 -1 10 C-1.02689216 8.52093108 -1.04634621 7.04172517 -1.0625 5.5625 C-1.07410156 4.73878906 -1.08570313 3.91507813 -1.09765625 3.06640625 C-1 1 -1 1 0 0 Z " fill="#AB7774" transform="translate(12,51)"/>
<path d="M0 0 C2.31 0 4.62 0 7 0 C7.33 0.99 7.66 1.98 8 3 C5.36 2.67 2.72 2.34 0 2 C0 1.34 0 0.68 0 0 Z " fill="#E3E3E3" transform="translate(39,47)"/>
<path d="M0 0 C0.99 0.33 1.98 0.66 3 1 C3 2.98 3 4.96 3 7 C2.34 7 1.68 7 1 7 C0.67 4.69 0.34 2.38 0 0 Z " fill="#F9FAF9" transform="translate(51,27)"/>
<path d="M0 0 C-0.33 2.31 -0.66 4.62 -1 7 C-1.33 7 -1.66 7 -2 7 C-2 5.35 -2 3.7 -2 2 C-3.32 1.67 -4.64 1.34 -6 1 C-4 0 -4 0 0 0 Z " fill="#858E9C" transform="translate(35,21)"/>
<path d="M0 0 C1.98 0 3.96 0 6 0 C3.60490662 2.89932357 1.68754757 3.50168276 -2 4 C-1.34 2.68 -0.68 1.36 0 0 Z " fill="#E0DBCD" transform="translate(46,61)"/>
<path d="M0 0 C1.65 0 3.3 0 5 0 C5 0.99 5 1.98 5 3 C3.68 3.33 2.36 3.66 1 4 C0.67 2.68 0.34 1.36 0 0 Z " fill="#D1D5D9" transform="translate(52,24)"/>
</svg>
