<svg version="1.1" id="Layer_1" xmlns="http://www.w3.org/2000/svg" xmlns:xlink="http://www.w3.org/1999/xlink" x="0px" y="0px"
	 width="100%" viewBox="0 0 2000 2000" enable-background="new 0 0 2000 2000" xml:space="preserve">
<path fill="#47704C" opacity="1.000000" stroke="none" 
	d="
M1073.000000,2001.000000 
	C715.333313,2001.000000 358.166656,2001.000000 1.000000,2001.000000 
	C1.000000,1334.333374 1.000000,667.666687 1.000000,1.000000 
	C667.666687,1.000000 1334.333374,1.000000 2001.000000,1.000000 
	C2001.000000,667.666687 2001.000000,1334.333374 2001.000000,2001.000000 
	C1691.833374,2001.000000 1382.666626,2001.000000 1073.000000,2001.000000 
M1023.478882,1948.949829 
	C1041.587280,1948.634033 1059.694824,1948.250732 1077.804321,1948.017578 
	C1108.074585,1947.627930 1138.346680,1947.388550 1168.616577,1946.971680 
	C1180.063599,1946.813965 1191.505615,1946.312012 1202.951172,1946.015747 
	C1217.060791,1945.650635 1231.172852,1945.380737 1245.281494,1944.983521 
	C1253.729980,1944.745605 1262.172363,1944.299316 1270.619995,1944.023682 
	C1292.009399,1943.325928 1313.401123,1942.701782 1334.789673,1941.979248 
	C1340.239380,1941.795166 1345.677856,1941.300781 1351.125854,1941.041138 
	C1372.802490,1940.007690 1394.479980,1938.990967 1416.159058,1938.009521 
	C1424.940796,1937.611938 1433.729370,1937.361328 1442.511353,1936.967285 
	C1448.448975,1936.700928 1454.385864,1936.373901 1460.313965,1935.946533 
	C1478.095581,1934.664551 1495.870483,1933.285889 1513.652710,1932.012817 
	C1524.207520,1931.257202 1534.780762,1930.748657 1545.328979,1929.917114 
	C1560.626465,1928.710938 1575.908813,1927.311279 1591.197754,1925.997192 
	C1599.422852,1925.290283 1607.657959,1924.684082 1615.871704,1923.864380 
	C1628.001587,1922.653931 1640.116089,1921.288818 1652.238159,1919.998901 
	C1662.238770,1918.934570 1672.255249,1918.003174 1682.238647,1916.797485 
	C1694.488403,1915.317871 1706.706177,1913.576904 1718.946533,1912.017334 
	C1732.666626,1910.269409 1746.454590,1908.966675 1760.108398,1906.807861 
	C1781.031616,1903.499512 1801.987427,1900.204712 1822.704468,1895.836670 
	C1846.472046,1890.825317 1870.139893,1885.183838 1893.574097,1878.799927 
	C1910.565308,1874.171265 1927.215820,1868.095093 1941.305664,1856.868286 
	C1947.598999,1851.853760 1953.407227,1841.407349 1944.354492,1833.003174 
	C1939.103516,1828.128784 1933.343384,1823.361084 1926.990479,1820.193848 
	C1902.946655,1808.206299 1877.000977,1801.788818 1850.932129,1796.058594 
	C1814.118164,1787.966309 1777.022461,1781.448730 1739.584229,1776.899170 
	C1717.042480,1774.159790 1694.572388,1770.832397 1672.031860,1768.082275 
	C1656.005615,1766.126953 1639.930542,1764.528931 1623.849976,1763.072876 
	C1606.249512,1761.479126 1588.617798,1760.232300 1571.300171,1758.236450 
	C1585.121948,1747.079102 1599.179199,1736.198364 1612.703125,1724.690918 
	C1627.800659,1711.844849 1643.115723,1699.128296 1657.075684,1685.100830 
	C1678.712158,1663.359985 1699.569092,1640.818237 1720.189941,1618.101807 
	C1731.908691,1605.192017 1743.184448,1591.757568 1753.444580,1577.674194 
	C1770.345215,1554.475708 1786.951416,1531.000366 1802.387573,1506.815674 
	C1816.503418,1484.699829 1829.903442,1461.998169 1841.801270,1438.629150 
	C1855.727905,1411.276123 1868.228149,1383.154175 1880.365234,1354.943481 
	C1895.991089,1318.623657 1907.850708,1280.925537 1917.839844,1242.707520 
	C1928.249512,1202.880615 1936.529663,1162.585449 1941.024536,1121.600708 
	C1943.087280,1102.792236 1945.297974,1083.993042 1946.898315,1065.143433 
	C1948.059570,1051.466187 1948.770264,1037.716675 1948.882812,1023.992859 
	C1949.022949,1006.888550 1948.488525,989.772949 1947.971558,972.670593 
	C1947.506470,957.280029 1946.776855,941.895020 1945.959106,926.518555 
	C1945.494873,917.789673 1944.957153,909.039734 1943.856079,900.375061 
	C1941.808350,884.261108 1939.676880,868.142273 1936.936401,852.135681 
	C1933.177246,830.178528 1929.565063,808.151428 1924.547119,786.464966 
	C1916.497803,751.677979 1906.574097,717.398804 1894.485107,683.733643 
	C1883.160767,652.197998 1870.550049,621.230713 1855.934082,591.106262 
	C1847.892578,574.532166 1839.403687,558.145752 1830.401611,542.075073 
	C1820.541748,524.472656 1810.235107,507.093262 1799.453125,490.040192 
	C1778.716187,457.242157 1756.103394,425.758942 1730.772949,396.319855 
	C1716.012451,379.165009 1701.521973,361.699005 1685.710571,345.547150 
	C1666.448364,325.870178 1646.216553,307.107635 1625.848511,288.559662 
	C1611.730591,275.703308 1597.257690,263.085602 1581.903320,251.772720 
	C1557.349854,233.682114 1532.347656,216.122803 1506.751709,199.548706 
	C1485.694458,185.913544 1463.791016,173.496643 1441.716919,161.547714 
	C1423.941772,151.925812 1405.626587,143.169144 1387.053101,135.187012 
	C1362.968018,124.836174 1338.605835,115.038231 1313.969604,106.084297 
	C1280.552124,93.938873 1246.458862,83.769882 1211.539551,76.887787 
	C1180.522339,70.774773 1149.394409,65.124634 1118.166992,60.215157 
	C1100.793823,57.483822 1083.137573,56.410397 1065.570923,55.097282 
	C1051.050659,54.011887 1036.478882,53.252022 1021.922485,53.112686 
	C1005.651978,52.956940 989.363708,53.420483 973.100525,54.059109 
	C954.763306,54.779182 936.436646,55.857609 918.122498,57.044533 
	C906.615479,57.790295 895.085632,58.612640 883.663208,60.131618 
	C866.432251,62.423008 849.192505,64.864311 832.127197,68.132851 
	C809.779602,72.413109 787.287903,76.456375 765.419189,82.598892 
	C733.920471,91.446320 702.583679,101.141823 671.820251,112.254105 
	C644.867126,121.990067 618.435364,133.397034 592.451538,145.519714 
	C569.977356,156.005020 548.171875,168.033371 526.599182,180.308365 
	C507.645844,191.092957 489.012482,202.557648 470.976410,214.809311 
	C442.973755,233.831085 415.660431,253.862137 390.210785,276.280060 
	C375.331360,289.386963 360.200958,302.237640 345.828583,315.883057 
	C332.693176,328.354065 320.221680,341.548187 307.834351,354.776428 
	C295.628723,367.810608 283.352692,380.845428 272.092010,394.681244 
	C257.690826,412.375732 244.065735,430.717255 230.480515,449.057220 
	C204.731537,483.818268 182.356552,520.736328 162.164459,558.939087 
	C152.484222,577.253784 143.382980,595.937927 135.188309,614.958313 
	C124.815353,639.034607 115.139458,663.441528 106.056076,688.035706 
	C93.501244,722.029236 84.033020,756.990479 76.148933,792.340698 
	C72.228203,809.920227 69.053093,827.680786 66.047752,845.445190 
	C63.611713,859.844543 61.705990,874.344971 59.979565,888.849915 
	C58.073647,904.862854 56.378990,920.910950 55.082466,936.983276 
	C54.018635,950.170715 53.216621,963.412903 53.120937,976.636719 
	C52.992336,994.409485 53.394421,1012.197449 54.049118,1029.961182 
	C54.737293,1048.633179 55.919827,1067.288452 57.032921,1085.942383 
	C57.523895,1094.170288 58.047749,1102.420532 59.136169,1110.583496 
	C61.195648,1126.029297 63.339066,1141.478516 66.061234,1156.817627 
	C69.580482,1176.647949 73.214287,1196.482056 77.665268,1216.118164 
	C86.508804,1255.132568 97.792763,1293.477905 112.144997,1330.833374 
	C120.434700,1352.409546 129.173523,1373.845947 138.647095,1394.924194 
	C146.733536,1412.916138 155.624359,1430.599976 165.124802,1447.889526 
	C176.978958,1469.462402 189.255890,1490.848511 202.369019,1511.673706 
	C223.127625,1544.641235 245.897568,1576.232910 271.336853,1605.798218 
	C285.987152,1622.824585 300.327850,1640.201050 316.044098,1656.205933 
	C336.621063,1677.160767 358.311035,1697.031982 379.754059,1717.121826 
	C386.589478,1723.525879 394.119354,1729.195923 401.410583,1735.104004 
	C411.233856,1743.063843 421.133759,1750.928833 430.083221,1758.953735 
	C415.915039,1759.985840 401.742828,1760.966309 387.580353,1762.071167 
	C380.340759,1762.635986 373.107666,1763.326172 365.891083,1764.133423 
	C355.097260,1765.340698 344.328308,1766.770508 333.534332,1767.976685 
	C323.372681,1769.111816 313.171570,1769.911865 303.025665,1771.165527 
	C291.439301,1772.597412 279.898346,1774.393677 268.331024,1775.983276 
	C255.451324,1777.753174 242.519424,1779.193604 229.691391,1781.277100 
	C213.476944,1783.910400 197.340866,1787.028809 181.177338,1789.972656 
	C153.942474,1794.933228 126.930458,1800.850464 100.666267,1809.724365 
	C86.425331,1814.536011 72.084969,1819.405029 60.528053,1829.564209 
	C50.544369,1838.340576 50.102341,1847.676758 60.345650,1856.388916 
	C66.897690,1861.961792 74.835304,1866.382812 82.823143,1869.706787 
	C115.474998,1883.294189 149.936142,1890.541748 184.540665,1896.892822 
	C207.817978,1901.164917 231.257172,1904.596680 254.679504,1908.024902 
	C276.826233,1911.266479 299.022644,1914.198608 321.239807,1916.919067 
	C339.851379,1919.197876 358.514038,1921.079224 377.173248,1922.944458 
	C395.228729,1924.749634 413.299774,1926.415771 431.380524,1927.947021 
	C448.824615,1929.424561 466.286407,1930.699097 483.746887,1931.974365 
	C498.414825,1933.045654 513.089478,1934.028931 527.765869,1934.978149 
	C543.943542,1936.024658 560.123657,1937.036865 576.308044,1937.972046 
	C589.197693,1938.716675 602.094482,1939.339600 614.989685,1939.986084 
	C628.719116,1940.674316 642.447876,1941.383179 656.181396,1941.980225 
	C672.905090,1942.707397 689.631531,1943.382812 706.360291,1943.979492 
	C726.749817,1944.706787 747.142212,1945.358521 767.535156,1945.985229 
	C780.311646,1946.377930 793.089539,1946.792725 805.870056,1946.972168 
	C835.475342,1947.387573 865.083374,1947.610474 894.688660,1948.026611 
	C906.802490,1948.196899 918.910645,1948.845581 931.024170,1948.951660 
	C946.515564,1949.087280 962.009766,1948.894531 978.189026,1948.961182 
	C981.677795,1949.196411 985.163879,1949.570435 988.655945,1949.639282 
	C997.013855,1949.804199 1005.375366,1949.920898 1013.733765,1949.852539 
	C1016.651794,1949.828613 1019.564880,1949.205322 1023.478882,1948.949829 
z"/>
<path fill="#FFCC4D" opacity="1.000000" stroke="none" 
	d="
M431.000793,1758.834473 
	C421.133759,1750.928833 411.233856,1743.063843 401.410583,1735.104004 
	C394.119354,1729.195923 386.589478,1723.525879 379.754059,1717.121826 
	C358.311035,1697.031982 336.621063,1677.160767 316.044098,1656.205933 
	C300.327850,1640.201050 285.987152,1622.824585 271.336853,1605.798218 
	C245.897568,1576.232910 223.127625,1544.641235 202.369019,1511.673706 
	C189.255890,1490.848511 176.978958,1469.462402 165.124802,1447.889526 
	C155.624359,1430.599976 146.733536,1412.916138 138.647095,1394.924194 
	C129.173523,1373.845947 120.434700,1352.409546 112.144997,1330.833374 
	C97.792763,1293.477905 86.508804,1255.132568 77.665268,1216.118164 
	C73.214287,1196.482056 69.580482,1176.647949 66.061234,1156.817627 
	C63.339066,1141.478516 61.195648,1126.029297 59.136169,1110.583496 
	C58.047749,1102.420532 57.523895,1094.170288 57.032921,1085.942383 
	C55.919827,1067.288452 54.737293,1048.633179 54.049118,1029.961182 
	C53.394421,1012.197449 52.992336,994.409485 53.120937,976.636719 
	C53.216621,963.412903 54.018635,950.170715 55.082466,936.983276 
	C56.378990,920.910950 58.073647,904.862854 59.979565,888.849915 
	C61.705990,874.344971 63.611713,859.844543 66.047752,845.445190 
	C69.053093,827.680786 72.228203,809.920227 76.148933,792.340698 
	C84.033020,756.990479 93.501244,722.029236 106.056076,688.035706 
	C115.139458,663.441528 124.815353,639.034607 135.188309,614.958313 
	C143.382980,595.937927 152.484222,577.253784 162.164459,558.939087 
	C182.356552,520.736328 204.731537,483.818268 230.480515,449.057220 
	C244.065735,430.717255 257.690826,412.375732 272.092010,394.681244 
	C283.352692,380.845428 295.628723,367.810608 307.834351,354.776428 
	C320.221680,341.548187 332.693176,328.354065 345.828583,315.883057 
	C360.200958,302.237640 375.331360,289.386963 390.210785,276.280060 
	C415.660431,253.862137 442.973755,233.831085 470.976410,214.809311 
	C489.012482,202.557648 507.645844,191.092957 526.599182,180.308365 
	C548.171875,168.033371 569.977356,156.005020 592.451538,145.519714 
	C618.435364,133.397034 644.867126,121.990067 671.820251,112.254105 
	C702.583679,101.141823 733.920471,91.446320 765.419189,82.598892 
	C787.287903,76.456375 809.779602,72.413109 832.127197,68.132851 
	C849.192505,64.864311 866.432251,62.423008 883.663208,60.131618 
	C895.085632,58.612640 906.615479,57.790295 918.122498,57.044533 
	C936.436646,55.857609 954.763306,54.779182 973.100525,54.059109 
	C989.363708,53.420483 1005.651978,52.956940 1021.922485,53.112686 
	C1036.478882,53.252022 1051.050659,54.011887 1065.570923,55.097282 
	C1083.137573,56.410397 1100.793823,57.483822 1118.166992,60.215157 
	C1149.394409,65.124634 1180.522339,70.774773 1211.539551,76.887787 
	C1246.458862,83.769882 1280.552124,93.938873 1313.969604,106.084297 
	C1338.605835,115.038231 1362.968018,124.836174 1387.053101,135.187012 
	C1405.626587,143.169144 1423.941772,151.925812 1441.716919,161.547714 
	C1463.791016,173.496643 1485.694458,185.913544 1506.751709,199.548706 
	C1532.347656,216.122803 1557.349854,233.682114 1581.903320,251.772720 
	C1597.257690,263.085602 1611.730591,275.703308 1625.848511,288.559662 
	C1646.216553,307.107635 1666.448364,325.870178 1685.710571,345.547150 
	C1701.521973,361.699005 1716.012451,379.165009 1730.772949,396.319855 
	C1756.103394,425.758942 1778.716187,457.242157 1799.453125,490.040192 
	C1810.235107,507.093262 1820.541748,524.472656 1830.401611,542.075073 
	C1839.403687,558.145752 1847.892578,574.532166 1855.934082,591.106262 
	C1870.550049,621.230713 1883.160767,652.197998 1894.485107,683.733643 
	C1906.574097,717.398804 1916.497803,751.677979 1924.547119,786.464966 
	C1929.565063,808.151428 1933.177246,830.178528 1936.936401,852.135681 
	C1939.676880,868.142273 1941.808350,884.261108 1943.856079,900.375061 
	C1944.957153,909.039734 1945.494873,917.789673 1945.959106,926.518555 
	C1946.776855,941.895020 1947.506470,957.280029 1947.971558,972.670593 
	C1948.488525,989.772949 1949.022949,1006.888550 1948.882812,1023.992859 
	C1948.770264,1037.716675 1948.059570,1051.466187 1946.898315,1065.143433 
	C1945.297974,1083.993042 1943.087280,1102.792236 1941.024536,1121.600708 
	C1936.529663,1162.585449 1928.249512,1202.880615 1917.839844,1242.707520 
	C1907.850708,1280.925537 1895.991089,1318.623657 1880.365234,1354.943481 
	C1868.228149,1383.154175 1855.727905,1411.276123 1841.801270,1438.629150 
	C1829.903442,1461.998169 1816.503418,1484.699829 1802.387573,1506.815674 
	C1786.951416,1531.000366 1770.345215,1554.475708 1753.444580,1577.674194 
	C1743.184448,1591.757568 1731.908691,1605.192017 1720.189941,1618.101807 
	C1699.569092,1640.818237 1678.712158,1663.359985 1657.075684,1685.100830 
	C1643.115723,1699.128296 1627.800659,1711.844849 1612.703125,1724.690918 
	C1599.179199,1736.198364 1585.121948,1747.079102 1570.716309,1758.587769 
	C1558.218750,1757.972290 1546.315063,1756.846802 1534.387939,1756.092407 
	C1525.901367,1755.555786 1527.250732,1755.865845 1527.250000,1748.484497 
	C1527.228638,1495.056274 1527.232178,1241.628174 1527.234253,988.199951 
	C1527.234253,986.367371 1527.264404,984.534790 1527.642090,982.771118 
	C1537.273315,986.957886 1546.596069,990.960693 1555.798584,995.223083 
	C1566.822998,1000.329285 1578.192139,1002.556580 1590.223633,999.955200 
	C1618.136108,993.919983 1637.497559,968.661438 1631.101318,936.806335 
	C1627.625488,919.495361 1616.694092,907.711121 1600.924805,899.944031 
	C1535.149414,867.546265 1465.464478,851.005432 1392.349731,849.237549 
	C1369.816040,848.692688 1347.136719,849.571899 1324.684204,851.585938 
	C1302.871094,853.542542 1281.117432,857.033691 1259.597168,861.193970 
	C1217.467529,869.338562 1176.810547,882.394775 1137.633301,900.046204 
	C1114.140259,910.631042 1102.120483,937.866089 1107.263550,959.159912 
	C1115.361816,992.689148 1149.633667,1009.955933 1181.278931,996.035095 
	C1191.476440,991.549194 1201.736938,987.138672 1212.206543,983.351379 
	C1246.128540,971.080505 1280.991821,962.589844 1316.847168,958.712280 
	C1316.859009,1220.551880 1316.859009,1481.939331 1316.859009,1744.152222 
	C1310.221069,1743.754761 1304.328857,1743.275269 1298.427124,1743.071655 
	C1277.689331,1742.355591 1256.948486,1741.721313 1236.208130,1741.082397 
	C1224.425049,1740.719482 1212.641846,1740.341797 1200.856079,1740.088989 
	C1181.579590,1739.675415 1162.301147,1739.342651 1143.023071,1739.005371 
	C1129.210327,1738.763550 1115.395386,1738.320068 1101.583740,1738.395630 
	C1016.321716,1738.862061 931.059387,1739.328125 845.799438,1740.062378 
	C814.720825,1740.330078 783.648438,1741.332397 752.573242,1742.000122 
	C735.957703,1742.357056 719.342041,1742.712280 702.726746,1743.079346 
	C701.732178,1743.101318 700.741028,1743.249512 699.746338,1743.295898 
	C695.033508,1743.515625 690.320007,1743.720459 685.133911,1743.951538 
	C685.133911,1740.784790 685.133850,1738.484131 685.133850,1736.183350 
	C685.133850,1516.052368 685.132019,1295.921509 685.135742,1075.790527 
	C685.136353,1036.130493 685.160095,996.470398 685.612915,956.780029 
	C688.210144,956.930969 690.377625,957.033325 692.523682,957.305054 
	C736.825134,962.913452 779.081421,975.333801 819.124512,995.202026 
	C826.778809,998.999878 834.841858,1001.276123 843.566284,1001.033691 
	C874.474487,1000.174622 901.183228,974.434448 894.351440,937.175110 
	C891.247620,920.247009 880.924255,907.788879 865.273438,900.677795 
	C846.962402,892.358154 828.554626,884.075623 809.648438,877.280273 
	C775.112305,864.867249 739.602112,856.092529 702.883667,852.996277 
	C686.070435,851.578613 669.245911,849.296448 652.421936,849.254944 
	C630.577026,849.201050 608.667542,850.297974 586.897827,852.188477 
	C567.047058,853.912415 547.193726,856.544556 527.609436,860.208313 
	C483.954285,868.375305 441.864655,881.742859 401.218048,899.819580 
	C379.251740,909.588562 363.523254,937.010437 371.210876,962.495972 
	C380.201385,992.300964 412.795074,1009.612305 442.887146,996.729675 
	C453.415558,992.222473 464.141357,988.176331 474.773438,984.393311 
	C474.769165,1239.026245 474.768463,1493.185425 474.767395,1747.344727 
	C474.767395,1749.011353 475.152283,1750.810669 474.644043,1752.305420 
	C474.182922,1753.661621 472.829559,1755.617188 471.727386,1755.715454 
	C458.167023,1756.925171 444.580536,1757.842041 431.000793,1758.834473 
M1210.750366,1452.918457 
	C1210.502930,1451.793335 1210.139404,1450.679688 1210.026489,1449.541260 
	C1208.933472,1438.521973 1208.500610,1427.397339 1206.716675,1416.492920 
	C1197.107300,1357.754028 1177.022705,1302.941772 1143.908691,1253.251831 
	C1124.699585,1224.427246 1101.888184,1198.948120 1072.121460,1180.551636 
	C1032.043457,1155.782471 990.201965,1151.358154 946.868958,1171.328125 
	C916.356934,1185.389526 892.229248,1207.535278 872.132385,1233.962280 
	C821.900146,1300.016479 796.081421,1375.128662 791.063599,1457.605103 
	C789.700562,1480.009155 790.239441,1502.406494 794.975342,1524.537598 
	C800.680054,1551.195557 811.124634,1575.288696 831.942444,1593.798218 
	C857.351074,1616.389648 888.817810,1623.893433 921.148132,1628.809082 
	C931.258057,1630.346191 941.565491,1630.773071 951.803894,1631.244019 
	C993.738342,1633.173462 1035.711182,1633.995361 1077.452637,1628.787964 
	C1093.497925,1626.786377 1109.584473,1623.424683 1125.030762,1618.665649 
	C1157.729736,1608.591187 1182.564697,1588.609497 1196.837524,1556.743530 
	C1206.234131,1535.764282 1209.923584,1513.532471 1210.927124,1490.820557 
	C1211.470581,1478.522583 1210.928101,1466.176636 1210.750366,1452.918457 
M1615.422729,840.155884 
	C1623.418823,843.087036 1631.700073,843.878113 1640.035034,842.559387 
	C1664.133179,838.746521 1682.143066,820.183533 1684.869263,796.686768 
	C1687.598999,773.159790 1674.903687,751.211975 1652.446411,741.875549 
	C1614.765259,726.210022 1577.720947,709.250183 1541.932861,689.594604 
	C1495.987305,664.360291 1452.336548,635.671631 1411.652222,602.600525 
	C1372.103638,570.452759 1335.579224,535.312561 1304.940918,494.296753 
	C1291.793701,476.696411 1267.421997,470.097565 1246.892334,477.568390 
	C1223.795654,485.973389 1212.088989,505.219299 1211.200439,526.995178 
	C1210.700806,539.236572 1215.668335,550.296326 1222.950684,560.215210 
	C1250.006958,597.067200 1281.719727,629.605591 1315.900024,659.758118 
	C1404.528198,737.942322 1505.283447,796.112854 1615.422729,840.155884 
M320.819611,770.440674 
	C316.934570,779.582458 315.800598,789.133667 317.527740,798.835205 
	C323.689545,833.446899 358.398010,852.625854 390.902100,838.402893 
	C425.938690,823.071777 461.003693,807.595764 494.979950,790.093567 
	C573.116150,749.843079 644.679016,699.952698 708.428589,639.204956 
	C734.521118,614.341125 758.997131,588.005737 780.093445,558.681763 
	C789.130005,546.120728 792.541870,532.114624 789.242981,517.025452 
	C784.499939,495.330658 771.085388,481.088013 749.401428,476.296204 
	C727.397949,471.433777 709.109558,478.654968 695.120361,496.547394 
	C687.634583,506.121765 680.262817,515.825195 672.198914,524.901184 
	C618.581177,585.248169 555.249329,633.611694 486.142853,674.727844 
	C442.576080,700.648682 396.983765,722.510620 350.034515,741.573547 
	C336.556396,747.046082 326.980438,756.483093 320.819611,770.440674 
z"/>
<path fill="#5DADEC" opacity="1.000000" stroke="none" 
	d="
M430.541992,1758.894043 
	C444.580536,1757.842041 458.167023,1756.925171 471.727386,1755.715454 
	C472.829559,1755.617188 474.182922,1753.661621 474.644043,1752.305420 
	C475.152283,1750.810669 474.767395,1749.011353 474.767395,1747.344727 
	C474.768463,1493.185425 474.769165,1239.026245 475.032776,984.132629 
	C527.685852,964.256042 581.890991,954.927368 637.547424,954.284058 
	C653.410889,954.100647 669.297302,955.913086 685.173218,956.810303 
	C685.160095,996.470398 685.136353,1036.130493 685.135742,1075.790527 
	C685.132019,1295.921509 685.133850,1516.052368 685.133850,1736.183350 
	C685.133850,1738.484131 685.133911,1740.784790 685.133911,1743.951538 
	C690.320007,1743.720459 695.033508,1743.515625 699.746338,1743.295898 
	C700.741028,1743.249512 701.732178,1743.101318 702.726746,1743.079346 
	C719.342041,1742.712280 735.957703,1742.357056 752.573242,1742.000122 
	C783.648438,1741.332397 814.720825,1740.330078 845.799438,1740.062378 
	C931.059387,1739.328125 1016.321716,1738.862061 1101.583740,1738.395630 
	C1115.395386,1738.320068 1129.210327,1738.763550 1143.023071,1739.005371 
	C1162.301147,1739.342651 1181.579590,1739.675415 1200.856079,1740.088989 
	C1212.641846,1740.341797 1224.425049,1740.719482 1236.208130,1741.082397 
	C1256.948486,1741.721313 1277.689331,1742.355591 1298.427124,1743.071655 
	C1304.328857,1743.275269 1310.221069,1743.754761 1316.859009,1744.152222 
	C1316.859009,1481.939331 1316.859009,1220.551880 1317.287354,958.604370 
	C1333.023926,956.812439 1348.316772,954.884155 1363.644897,954.544128 
	C1379.038818,954.202637 1394.514038,954.883057 1409.869141,956.143799 
	C1426.177124,957.482666 1442.514893,959.314758 1458.607422,962.218628 
	C1482.199585,966.475830 1505.205933,973.138367 1527.280518,982.702209 
	C1527.264404,984.534790 1527.234253,986.367371 1527.234253,988.199951 
	C1527.232178,1241.628174 1527.228638,1495.056274 1527.250000,1748.484497 
	C1527.250732,1755.865845 1525.901367,1755.555786 1534.387939,1756.092407 
	C1546.315063,1756.846802 1558.218750,1757.972290 1570.566040,1758.886719 
	C1588.617798,1760.232300 1606.249512,1761.479126 1623.849976,1763.072876 
	C1639.930542,1764.528931 1656.005615,1766.126953 1672.031860,1768.082275 
	C1694.572388,1770.832397 1717.042480,1774.159790 1739.584229,1776.899170 
	C1777.022461,1781.448730 1814.118164,1787.966309 1850.932129,1796.058594 
	C1877.000977,1801.788818 1902.946655,1808.206299 1926.990479,1820.193848 
	C1933.343384,1823.361084 1939.103516,1828.128784 1944.354492,1833.003174 
	C1953.407227,1841.407349 1947.598999,1851.853760 1941.305664,1856.868286 
	C1927.215820,1868.095093 1910.565308,1874.171265 1893.574097,1878.799927 
	C1870.139893,1885.183838 1846.472046,1890.825317 1822.704468,1895.836670 
	C1801.987427,1900.204712 1781.031616,1903.499512 1760.108398,1906.807861 
	C1746.454590,1908.966675 1732.666626,1910.269409 1718.946533,1912.017334 
	C1706.706177,1913.576904 1694.488403,1915.317871 1682.238647,1916.797485 
	C1672.255249,1918.003174 1662.238770,1918.934570 1652.238159,1919.998901 
	C1640.116089,1921.288818 1628.001587,1922.653931 1615.871704,1923.864380 
	C1607.657959,1924.684082 1599.422852,1925.290283 1591.197754,1925.997192 
	C1575.908813,1927.311279 1560.626465,1928.710938 1545.328979,1929.917114 
	C1534.780762,1930.748657 1524.207520,1931.257202 1513.652710,1932.012817 
	C1495.870483,1933.285889 1478.095581,1934.664551 1460.313965,1935.946533 
	C1454.385864,1936.373901 1448.448975,1936.700928 1442.511353,1936.967285 
	C1433.729370,1937.361328 1424.940796,1937.611938 1416.159058,1938.009521 
	C1394.479980,1938.990967 1372.802490,1940.007690 1351.125854,1941.041138 
	C1345.677856,1941.300781 1340.239380,1941.795166 1334.789673,1941.979248 
	C1313.401123,1942.701782 1292.009399,1943.325928 1270.619995,1944.023682 
	C1262.172363,1944.299316 1253.729980,1944.745605 1245.281494,1944.983521 
	C1231.172852,1945.380737 1217.060791,1945.650635 1202.951172,1946.015747 
	C1191.505615,1946.312012 1180.063599,1946.813965 1168.616577,1946.971680 
	C1138.346680,1947.388550 1108.074585,1947.627930 1077.804321,1948.017578 
	C1059.694824,1948.250732 1041.587280,1948.634033 1022.646484,1948.780273 
	C1007.043701,1948.688232 992.273193,1948.765869 977.502747,1948.843384 
	C962.009766,1948.894531 946.515564,1949.087280 931.024170,1948.951660 
	C918.910645,1948.845581 906.802490,1948.196899 894.688660,1948.026611 
	C865.083374,1947.610474 835.475342,1947.387573 805.870056,1946.972168 
	C793.089539,1946.792725 780.311646,1946.377930 767.535156,1945.985229 
	C747.142212,1945.358521 726.749817,1944.706787 706.360291,1943.979492 
	C689.631531,1943.382812 672.905090,1942.707397 656.181396,1941.980225 
	C642.447876,1941.383179 628.719116,1940.674316 614.989685,1939.986084 
	C602.094482,1939.339600 589.197693,1938.716675 576.308044,1937.972046 
	C560.123657,1937.036865 543.943542,1936.024658 527.765869,1934.978149 
	C513.089478,1934.028931 498.414825,1933.045654 483.746887,1931.974365 
	C466.286407,1930.699097 448.824615,1929.424561 431.380524,1927.947021 
	C413.299774,1926.415771 395.228729,1924.749634 377.173248,1922.944458 
	C358.514038,1921.079224 339.851379,1919.197876 321.239807,1916.919067 
	C299.022644,1914.198608 276.826233,1911.266479 254.679504,1908.024902 
	C231.257172,1904.596680 207.817978,1901.164917 184.540665,1896.892822 
	C149.936142,1890.541748 115.474998,1883.294189 82.823143,1869.706787 
	C74.835304,1866.382812 66.897690,1861.961792 60.345650,1856.388916 
	C50.102341,1847.676758 50.544369,1838.340576 60.528053,1829.564209 
	C72.084969,1819.405029 86.425331,1814.536011 100.666267,1809.724365 
	C126.930458,1800.850464 153.942474,1794.933228 181.177338,1789.972656 
	C197.340866,1787.028809 213.476944,1783.910400 229.691391,1781.277100 
	C242.519424,1779.193604 255.451324,1777.753174 268.331024,1775.983276 
	C279.898346,1774.393677 291.439301,1772.597412 303.025665,1771.165527 
	C313.171570,1769.911865 323.372681,1769.111816 333.534332,1767.976685 
	C344.328308,1766.770508 355.097260,1765.340698 365.891083,1764.133423 
	C373.107666,1763.326172 380.340759,1762.635986 387.580353,1762.071167 
	C401.742828,1760.966309 415.915039,1759.985840 430.541992,1758.894043 
z"/>
<path fill="#A3BEA8" opacity="1.000000" stroke="none" 
	d="
M977.845886,1948.902344 
	C992.273193,1948.765869 1007.043701,1948.688232 1022.147217,1948.733154 
	C1019.564880,1949.205322 1016.651794,1949.828613 1013.733765,1949.852539 
	C1005.375366,1949.920898 997.013855,1949.804199 988.655945,1949.639282 
	C985.163879,1949.570435 981.677795,1949.196411 977.845886,1948.902344 
z"/>
<path fill="#664500" opacity="1.000000" stroke="none" 
	d="
M1210.812988,1453.385498 
	C1210.928101,1466.176636 1211.470581,1478.522583 1210.927124,1490.820557 
	C1209.923584,1513.532471 1206.234131,1535.764282 1196.837524,1556.743530 
	C1182.564697,1588.609497 1157.729736,1608.591187 1125.030762,1618.665649 
	C1109.584473,1623.424683 1093.497925,1626.786377 1077.452637,1628.787964 
	C1035.711182,1633.995361 993.738342,1633.173462 951.803894,1631.244019 
	C941.565491,1630.773071 931.258057,1630.346191 921.148132,1628.809082 
	C888.817810,1623.893433 857.351074,1616.389648 831.942444,1593.798218 
	C811.124634,1575.288696 800.680054,1551.195557 794.975342,1524.537598 
	C790.239441,1502.406494 789.700562,1480.009155 791.063599,1457.605103 
	C796.081421,1375.128662 821.900146,1300.016479 872.132385,1233.962280 
	C892.229248,1207.535278 916.356934,1185.389526 946.868958,1171.328125 
	C990.201965,1151.358154 1032.043457,1155.782471 1072.121460,1180.551636 
	C1101.888184,1198.948120 1124.699585,1224.427246 1143.908691,1253.251831 
	C1177.022705,1302.941772 1197.107300,1357.754028 1206.716675,1416.492920 
	C1208.500610,1427.397339 1208.933472,1438.521973 1210.026489,1449.541260 
	C1210.139404,1450.679688 1210.502930,1451.793335 1210.812988,1453.385498 
M924.997009,1376.390259 
	C918.451843,1378.306030 911.779907,1379.872803 905.383301,1382.197266 
	C875.282166,1393.135742 854.102356,1412.661621 846.419250,1444.741455 
	C841.899231,1463.614746 841.795349,1482.561035 845.786865,1501.588623 
	C851.463623,1528.649658 866.685486,1548.323364 891.174011,1560.897217 
	C909.043823,1570.072632 928.319763,1574.475708 948.071289,1576.964111 
	C976.928955,1580.600220 1005.902039,1580.703979 1034.876587,1578.864990 
	C1055.033081,1577.585571 1074.947388,1574.604248 1094.138062,1567.978149 
	C1125.056885,1557.302856 1147.221436,1538.043213 1155.417847,1505.153076 
	C1158.659302,1492.145752 1158.414185,1478.958740 1158.056274,1465.696655 
	C1157.146118,1431.977051 1142.946411,1406.179810 1113.136963,1389.687988 
	C1090.625488,1377.233521 1065.833984,1373.063721 1040.649780,1371.035278 
	C1016.413818,1369.083252 992.113159,1368.340942 967.860535,1371.025024 
	C953.822571,1372.578735 939.818909,1374.442505 924.997009,1376.390259 
z"/>
<path fill="#664500" opacity="1.000000" stroke="none" 
	d="
M1615.041260,840.049438 
	C1505.283447,796.112854 1404.528198,737.942322 1315.900024,659.758118 
	C1281.719727,629.605591 1250.006958,597.067200 1222.950684,560.215210 
	C1215.668335,550.296326 1210.700806,539.236572 1211.200439,526.995178 
	C1212.088989,505.219299 1223.795654,485.973389 1246.892334,477.568390 
	C1267.421997,470.097565 1291.793701,476.696411 1304.940918,494.296753 
	C1335.579224,535.312561 1372.103638,570.452759 1411.652222,602.600525 
	C1452.336548,635.671631 1495.987305,664.360291 1541.932861,689.594604 
	C1577.720947,709.250183 1614.765259,726.210022 1652.446411,741.875549 
	C1674.903687,751.211975 1687.598999,773.159790 1684.869263,796.686768 
	C1682.143066,820.183533 1664.133179,838.746521 1640.035034,842.559387 
	C1631.700073,843.878113 1623.418823,843.087036 1615.041260,840.049438 
z"/>
<path fill="#664500" opacity="1.000000" stroke="none" 
	d="
M320.942139,770.077515 
	C326.980438,756.483093 336.556396,747.046082 350.034515,741.573547 
	C396.983765,722.510620 442.576080,700.648682 486.142853,674.727844 
	C555.249329,633.611694 618.581177,585.248169 672.198914,524.901184 
	C680.262817,515.825195 687.634583,506.121765 695.120361,496.547394 
	C709.109558,478.654968 727.397949,471.433777 749.401428,476.296204 
	C771.085388,481.088013 784.499939,495.330658 789.242981,517.025452 
	C792.541870,532.114624 789.130005,546.120728 780.093445,558.681763 
	C758.997131,588.005737 734.521118,614.341125 708.428589,639.204956 
	C644.679016,699.952698 573.116150,749.843079 494.979950,790.093567 
	C461.003693,807.595764 425.938690,823.071777 390.902100,838.402893 
	C358.398010,852.625854 323.689545,833.446899 317.527740,798.835205 
	C315.800598,789.133667 316.934570,779.582458 320.942139,770.077515 
z"/>
<path fill="#664500" opacity="1.000000" stroke="none" 
	d="
M1527.642090,982.771118 
	C1505.205933,973.138367 1482.199585,966.475830 1458.607422,962.218628 
	C1442.514893,959.314758 1426.177124,957.482666 1409.869141,956.143799 
	C1394.514038,954.883057 1379.038818,954.202637 1363.644897,954.544128 
	C1348.316772,954.884155 1333.023926,956.812439 1317.275635,958.152161 
	C1280.991821,962.589844 1246.128540,971.080505 1212.206543,983.351379 
	C1201.736938,987.138672 1191.476440,991.549194 1181.278931,996.035095 
	C1149.633667,1009.955933 1115.361816,992.689148 1107.263550,959.159912 
	C1102.120483,937.866089 1114.140259,910.631042 1137.633301,900.046204 
	C1176.810547,882.394775 1217.467529,869.338562 1259.597168,861.193970 
	C1281.117432,857.033691 1302.871094,853.542542 1324.684204,851.585938 
	C1347.136719,849.571899 1369.816040,848.692688 1392.349731,849.237549 
	C1465.464478,851.005432 1535.149414,867.546265 1600.924805,899.944031 
	C1616.694092,907.711121 1627.625488,919.495361 1631.101318,936.806335 
	C1637.497559,968.661438 1618.136108,993.919983 1590.223633,999.955200 
	C1578.192139,1002.556580 1566.822998,1000.329285 1555.798584,995.223083 
	C1546.596069,990.960693 1537.273315,986.957886 1527.642090,982.771118 
z"/>
<path fill="#664500" opacity="1.000000" stroke="none" 
	d="
M685.612915,956.780029 
	C669.297302,955.913086 653.410889,954.100647 637.547424,954.284058 
	C581.890991,954.927368 527.685852,964.256042 475.036377,983.658997 
	C464.141357,988.176331 453.415558,992.222473 442.887146,996.729675 
	C412.795074,1009.612305 380.201385,992.300964 371.210876,962.495972 
	C363.523254,937.010437 379.251740,909.588562 401.218048,899.819580 
	C441.864655,881.742859 483.954285,868.375305 527.609436,860.208313 
	C547.193726,856.544556 567.047058,853.912415 586.897827,852.188477 
	C608.667542,850.297974 630.577026,849.201050 652.421936,849.254944 
	C669.245911,849.296448 686.070435,851.578613 702.883667,852.996277 
	C739.602112,856.092529 775.112305,864.867249 809.648438,877.280273 
	C828.554626,884.075623 846.962402,892.358154 865.273438,900.677795 
	C880.924255,907.788879 891.247620,920.247009 894.351440,937.175110 
	C901.183228,974.434448 874.474487,1000.174622 843.566284,1001.033691 
	C834.841858,1001.276123 826.778809,998.999878 819.124512,995.202026 
	C779.081421,975.333801 736.825134,962.913452 692.523682,957.305054 
	C690.377625,957.033325 688.210144,956.930969 685.612915,956.780029 
z"/>
<path fill="#E75A70" opacity="1.000000" stroke="none" 
	d="
M925.398438,1376.278564 
	C939.818909,1374.442505 953.822571,1372.578735 967.860535,1371.025024 
	C992.113159,1368.340942 1016.413818,1369.083252 1040.649780,1371.035278 
	C1065.833984,1373.063721 1090.625488,1377.233521 1113.136963,1389.687988 
	C1142.946411,1406.179810 1157.146118,1431.977051 1158.056274,1465.696655 
	C1158.414185,1478.958740 1158.659302,1492.145752 1155.417847,1505.153076 
	C1147.221436,1538.043213 1125.056885,1557.302856 1094.138062,1567.978149 
	C1074.947388,1574.604248 1055.033081,1577.585571 1034.876587,1578.864990 
	C1005.902039,1580.703979 976.928955,1580.600220 948.071289,1576.964111 
	C928.319763,1574.475708 909.043823,1570.072632 891.174011,1560.897217 
	C866.685486,1548.323364 851.463623,1528.649658 845.786865,1501.588623 
	C841.795349,1482.561035 841.899231,1463.614746 846.419250,1444.741455 
	C854.102356,1412.661621 875.282166,1393.135742 905.383301,1382.197266 
	C911.779907,1379.872803 918.451843,1378.306030 925.398438,1376.278564 
z"/>
</svg>