<?xml version="1.0" encoding="UTF-8"?>
<!DOCTYPE svg PUBLIC "-//W3C//DTD SVG 1.1//EN" "http://www.w3.org/Graphics/SVG/1.1/DTD/svg11.dtd">
<svg xmlns="http://www.w3.org/2000/svg" version="1.1" width="2000px" height="2000px" style="shape-rendering:geometricPrecision; text-rendering:geometricPrecision; image-rendering:optimizeQuality; fill-rule:evenodd; clip-rule:evenodd" xmlns:xlink="http://www.w3.org/1999/xlink">
<g><path style="opacity:0.999" fill="#fecb4c" d="M 1569.5,1757.5 C 1555.86,1756.15 1542.19,1755.15 1528.5,1754.5C 1526.5,1497.04 1525.84,1239.37 1526.5,981.5C 1536.17,984.831 1545.5,988.998 1554.5,994C 1579.66,1004.09 1601.49,999.252 1620,979.5C 1630.83,963.859 1633.5,946.859 1628,928.5C 1623.05,916.879 1615.21,907.713 1604.5,901C 1499.88,850.166 1390.21,835.166 1275.5,856C 1232.53,863.492 1190.86,875.492 1150.5,892C 1138.29,896.349 1127.46,902.849 1118,911.5C 1100.76,933.669 1100.09,956.336 1116,979.5C 1129.85,996.005 1147.35,1002.17 1168.5,998C 1193.05,987.815 1218.05,978.815 1243.5,971C 1265.53,964.996 1287.86,960.496 1310.5,957.5C 1311.83,957.5 1313.17,957.5 1314.5,957.5C 1314.5,1218.83 1314.5,1480.17 1314.5,1741.5C 1310.5,1741.5 1306.5,1741.5 1302.5,1741.5C 1098.17,1734.87 893.832,1734.87 689.5,1741.5C 687.833,1741.5 686.167,1741.5 684.5,1741.5C 684.5,1479.5 684.5,1217.5 684.5,955.5C 717.885,958.429 750.218,965.929 781.5,978C 797.313,984.409 812.979,991.075 828.5,998C 859.507,1002.75 880.673,990.585 892,961.5C 897.764,929.53 885.597,907.363 855.5,895C 760.416,851.563 661.083,837.563 557.5,853C 500.816,861.087 446.483,877.087 394.5,901C 369.278,918.004 362.112,940.837 373,969.5C 388.21,995.685 410.376,1004.52 439.5,996C 450.162,990.614 461.162,986.114 472.5,982.5C 472.5,1239.5 472.5,1496.5 472.5,1753.5C 471.209,1753.26 470.209,1753.6 469.5,1754.5C 456.121,1755.06 442.788,1756.06 429.5,1757.5C 245.957,1616.25 127.457,1432.25 74,1205.5C 26.0781,977.958 55.4114,760.958 162,554.5C 274.473,348.7 439.639,202.2 657.5,115C 846.613,44.0556 1039.28,32.7223 1235.5,81C 1475.51,146.122 1663.34,282.289 1799,489.5C 1920.84,684.99 1967.5,897.324 1939,1126.5C 1904.67,1359.03 1800.84,1553.53 1627.5,1710C 1608.28,1726.09 1588.95,1741.92 1569.5,1757.5 Z"/></g>
<g><path style="opacity:1" fill="#664500" d="M 727.5,473.5 C 758.367,471.554 778.533,485.22 788,514.5C 790.955,530.673 787.622,545.34 778,558.5C 734.374,614.127 684.208,662.96 627.5,705C 551.418,761.257 468.751,806.257 379.5,840C 348.386,844.53 327.553,832.03 317,802.5C 311.973,772.719 323.139,751.552 350.5,739C 452.915,698.497 544.915,641.83 626.5,569C 653.719,543.126 678.719,515.459 701.5,486C 709.338,479.913 718.005,475.746 727.5,473.5 Z"/></g>
<g><path style="opacity:1" fill="#664500" d="M 1251.5,473.5 C 1268.63,471.446 1283.96,475.613 1297.5,486C 1336.58,536.41 1381.58,580.744 1432.5,619C 1499.62,668.578 1572.29,708.911 1650.5,740C 1676.53,752.892 1687.03,773.725 1682,802.5C 1671.75,830.72 1651.59,843.553 1621.5,841C 1502.26,796.091 1395.59,731.424 1301.5,647C 1275.86,623.033 1252.03,597.533 1230,570.5C 1221.07,560.644 1214.74,549.31 1211,536.5C 1207.75,504.606 1221.25,483.606 1251.5,473.5 Z"/></g>
<g><path style="opacity:1" fill="#664500" d="M 684.5,955.5 C 684.167,955.5 683.833,955.5 683.5,955.5C 616.528,949.061 550.861,956.228 486.5,977C 481.944,978.566 477.61,980.399 473.5,982.5C 473.167,982.5 472.833,982.5 472.5,982.5C 461.162,986.114 450.162,990.614 439.5,996C 410.376,1004.52 388.21,995.685 373,969.5C 362.112,940.837 369.278,918.004 394.5,901C 446.483,877.087 500.816,861.087 557.5,853C 661.083,837.563 760.416,851.563 855.5,895C 885.597,907.363 897.764,929.53 892,961.5C 880.673,990.585 859.507,1002.75 828.5,998C 812.979,991.075 797.313,984.409 781.5,978C 750.218,965.929 717.885,958.429 684.5,955.5 Z"/></g>
<g><path style="opacity:1" fill="#664500" d="M 1526.5,981.5 C 1526.17,981.5 1525.83,981.5 1525.5,981.5C 1476.01,961.192 1424.34,951.526 1370.5,952.5C 1352.06,952.596 1333.72,953.93 1315.5,956.5C 1313.59,956.216 1311.92,956.549 1310.5,957.5C 1287.86,960.496 1265.53,964.996 1243.5,971C 1218.05,978.815 1193.05,987.815 1168.5,998C 1147.35,1002.17 1129.85,996.005 1116,979.5C 1100.09,956.336 1100.76,933.669 1118,911.5C 1127.46,902.849 1138.29,896.349 1150.5,892C 1190.86,875.492 1232.53,863.492 1275.5,856C 1390.21,835.166 1499.88,850.166 1604.5,901C 1615.21,907.713 1623.05,916.879 1628,928.5C 1633.5,946.859 1630.83,963.859 1620,979.5C 1601.49,999.252 1579.66,1004.09 1554.5,994C 1545.5,988.998 1536.17,984.831 1526.5,981.5 Z"/></g>
<g><path style="opacity:0.998" fill="#5daceb" d="M 683.5,955.5 C 683.5,1217.83 683.5,1480.17 683.5,1742.5C 685.735,1742.79 687.735,1742.46 689.5,1741.5C 893.832,1734.87 1098.17,1734.87 1302.5,1741.5C 1306.63,1742.48 1310.97,1742.82 1315.5,1742.5C 1315.5,1480.5 1315.5,1218.5 1315.5,956.5C 1333.72,953.93 1352.06,952.596 1370.5,952.5C 1424.34,951.526 1476.01,961.192 1525.5,981.5C 1525.5,1239.17 1525.5,1496.83 1525.5,1754.5C 1526.5,1754.5 1527.5,1754.5 1528.5,1754.5C 1542.19,1755.15 1555.86,1756.15 1569.5,1757.5C 1641.5,1762.7 1713.16,1770.87 1784.5,1782C 1825.58,1788.15 1865.92,1797.48 1905.5,1810C 1916.51,1813.67 1926.84,1818.67 1936.5,1825C 1949.27,1833.6 1950.6,1843.6 1940.5,1855C 1930.72,1862.22 1920.05,1867.89 1908.5,1872C 1866.01,1885.57 1822.67,1895.57 1778.5,1902C 1669.01,1918.03 1559.18,1928.87 1449,1934.5C 1305.07,1942.95 1161.24,1947.28 1017.5,1947.5C 1005.5,1946.17 993.5,1946.17 981.5,1947.5C 823.23,1947.18 664.896,1942.01 506.5,1932C 426.294,1926.74 346.627,1919.08 267.5,1909C 222.461,1903.06 177.794,1895.06 133.5,1885C 110.97,1879.71 89.303,1872.05 68.5,1862C 45.8333,1848.33 45.8333,1834.67 68.5,1821C 90.8541,1810.22 114.187,1802.22 138.5,1797C 194.659,1784.64 251.325,1775.31 308.5,1769C 348.74,1764.11 389.073,1760.28 429.5,1757.5C 442.788,1756.06 456.121,1755.06 469.5,1754.5C 470.833,1754.5 472.167,1754.5 473.5,1754.5C 473.5,1497.17 473.5,1239.83 473.5,982.5C 477.61,980.399 481.944,978.566 486.5,977C 550.861,956.228 616.528,949.061 683.5,955.5 Z"/></g>
<g><path style="opacity:1" fill="#dcc56f" d="M 683.5,955.5 C 683.833,955.5 684.167,955.5 684.5,955.5C 684.5,1217.5 684.5,1479.5 684.5,1741.5C 686.167,1741.5 687.833,1741.5 689.5,1741.5C 687.735,1742.46 685.735,1742.79 683.5,1742.5C 683.5,1480.17 683.5,1217.83 683.5,955.5 Z"/></g>
<g><path style="opacity:1" fill="#dcc56f" d="M 1310.5,957.5 C 1311.92,956.549 1313.59,956.216 1315.5,956.5C 1315.5,1218.5 1315.5,1480.5 1315.5,1742.5C 1310.97,1742.82 1306.63,1742.48 1302.5,1741.5C 1306.5,1741.5 1310.5,1741.5 1314.5,1741.5C 1314.5,1480.17 1314.5,1218.83 1314.5,957.5C 1313.17,957.5 1311.83,957.5 1310.5,957.5 Z"/></g>
<g><path style="opacity:1" fill="#cbc180" d="M 1525.5,981.5 C 1525.83,981.5 1526.17,981.5 1526.5,981.5C 1525.84,1239.37 1526.5,1497.04 1528.5,1754.5C 1527.5,1754.5 1526.5,1754.5 1525.5,1754.5C 1525.5,1496.83 1525.5,1239.17 1525.5,981.5 Z"/></g>
<g><path style="opacity:1" fill="#cbc180" d="M 472.5,982.5 C 472.833,982.5 473.167,982.5 473.5,982.5C 473.5,1239.83 473.5,1497.17 473.5,1754.5C 472.167,1754.5 470.833,1754.5 469.5,1754.5C 470.209,1753.6 471.209,1753.26 472.5,1753.5C 472.5,1496.5 472.5,1239.5 472.5,982.5 Z"/></g>
<g><path style="opacity:1" fill="#664500" d="M 984.5,1157.5 C 1016.37,1155.28 1045.7,1162.78 1072.5,1180C 1106.79,1204.44 1134.29,1234.94 1155,1271.5C 1196.77,1345.1 1214.43,1424.1 1208,1508.5C 1204.88,1539.89 1192.71,1567.06 1171.5,1590C 1155.18,1604.16 1136.51,1614.16 1115.5,1620C 1076.17,1628.77 1036.34,1632.27 996,1630.5C 960.461,1631.94 925.294,1629.11 890.5,1622C 859.903,1615.02 834.736,1599.52 815,1575.5C 799.655,1551.13 791.322,1524.46 790,1495.5C 785.784,1391.82 816.118,1299.82 881,1219.5C 898.998,1198.77 920.165,1182.27 944.5,1170C 957.418,1164.08 970.751,1159.91 984.5,1157.5 Z"/></g>
<g><path style="opacity:1" fill="#e6596f" d="M 963.5,1368.5 C 991.519,1368.15 1019.52,1368.65 1047.5,1370C 1139.16,1380.18 1172.99,1429.68 1149,1518.5C 1140.17,1538 1126,1552.17 1106.5,1561C 1085.03,1569.86 1062.7,1575.19 1039.5,1577C 1002.65,1580.08 965.987,1578.75 929.5,1573C 860.635,1558.5 832.135,1516.34 844,1446.5C 851.341,1415.49 869.841,1393.99 899.5,1382C 920.367,1374.59 941.701,1370.09 963.5,1368.5 Z"/></g>
<g><path style="opacity:0.557" fill="#a2bbaa" d="M 981.5,1947.5 C 993.5,1946.17 1005.5,1946.17 1017.5,1947.5C 1005.48,1947.5 993.482,1947.5 981.5,1947.5 Z"/></g>
</svg>
